<svg width="251" height="339" viewBox="0 0 251 339" fill="none" xmlns="http://www.w3.org/2000/svg">
<path d="M122.891 15.88C158.681 -1.66999 187.231 52.42 222.641 36.73C224.771 44.98 218.551 62.36 211.681 68C224.131 86.67 221.801 112.58 202.111 125.1C201.531 134.17 200.711 143.43 197.221 151.87L202.451 151.59C203.501 143.36 209.701 136.85 218.451 139.76C230.681 143.82 228.851 166.54 214.001 163.4C215.401 169.12 216.361 174.62 215.921 180.56C228.651 188.02 228.901 200.96 212.571 201.05C216.081 211.96 202.731 214.77 195.321 212.79C194.301 213.21 186.701 223.51 186.761 224.32L202.751 236.54C203.781 236.72 203.301 236.33 203.501 235.88C208.351 224.86 217.891 220.72 229.481 225.15C250.741 233.28 250.791 263.74 249.741 282.6C234.441 288.17 210.511 284.15 196.781 275.12C185.371 267.31 182.631 249.33 196.731 242.79L182.361 232.71C172.111 253.7 181.801 277.39 147.821 279.25C157.561 307.85 115.401 303.08 126.711 272.83L115.231 231.47C112.481 231.75 109.601 232.26 107.061 230.8C106.351 242.6 110.211 238.93 115.931 245.66C119.431 253.29 115.371 266.51 106.291 267.69C96.0109 269.02 101.511 255.73 96.3309 250.15C85.7709 241.42 82.7209 242.59 77.5609 226.95C70.0509 225.97 66.6409 221.98 62.1109 216.03L55.2609 214.01C57.5109 220.2 59.8609 225.13 59.1009 232C58.5309 237.14 50.7109 251.25 44.5109 245.15C33.1209 227.69 25.1209 196.93 47.5909 184.03C41.7309 181.24 38.1209 177.27 38.9609 170.36C29.6509 173.55 18.3809 166.55 21.5009 155.94C10.3209 153.23 -0.299123 144.6 4.83088 132.32C-0.179123 126.73 -2.07913 114.24 5.42087 109.64C-0.0791268 102.15 -3.74913 83.06 11.5309 87.7C22.2709 90.96 27.5609 106.87 40.8509 102.69L40.8109 97.02C35.3809 95.83 28.3609 91.13 26.9509 85.71C28.0409 83.82 30.2309 82.71 31.7509 80.88C36.6209 75 37.3709 66.16 39.6809 59.07C44.4409 44.4 55.2209 33.56 71.5709 34.61C70.3509 31.15 75.0509 11.3 80.1609 16.21C80.5309 17.49 77.7309 25.27 80.1909 26.93C82.7309 17.5 91.4109 2.76 101.331 0.75C102.351 5.66 96.6109 10.89 96.7409 16.37L126.011 2.96001C131.091 4.15001 122.091 14.12 122.891 15.9V15.88ZM92.7509 22.52C92.3009 18.06 93.9909 13.74 95.2209 9.53999C95.3509 9.08999 96.0109 8.10001 95.0909 8.21001C90.9609 12.72 86.2909 18.41 84.1709 24.39C83.5809 25.89 81.6609 33.59 81.2009 33.9C80.4209 34.43 79.2309 34.2 78.8309 33.34L75.9109 24.52C75.1009 27.29 74.1209 30.58 74.0209 33.47C73.9509 35.33 75.2409 37.41 74.0209 39.19C61.8109 35.75 50.0709 44.05 45.2909 55.05C40.5309 65.25 40.9409 78.87 31.3109 86.17C34.0409 91.29 39.0009 93.31 44.5409 94.04C43.9309 101.14 44.1809 108.23 47.6309 114.7C51.0309 107.68 55.0309 99.72 64.3609 101.22C68.8309 84.66 83.5309 92.2 86.7009 82.55C87.4309 80.38 87.0809 74.5 88.7109 73.98C92.2909 72.84 90.7209 77.81 90.7809 79.43C90.8309 80.54 91.5209 85.05 92.5309 85.39C100.311 86.72 96.0309 67.8 101.141 71.49C102.341 72.46 101.321 78.79 103.891 81.45C106.171 83.8 111.291 83.42 113.791 85.93C113.431 80.46 112.641 72.3 116.451 67.72C119.871 63.6 120.261 70.26 120.971 72.28C127.581 90.37 161.851 82.91 167.991 100.8C171.531 99.59 172.571 91.45 172.811 88.09C172.781 86.76 169.571 76.66 173.741 78.95C178.241 83.86 181.691 92.51 181.891 99.36C188.881 95.72 185.321 78.76 194.271 91.05C200.671 99.83 202.121 109.85 202.511 120.47C220.901 105.31 217.551 85.33 206.801 67.48C215.011 61.03 218.081 52.26 219.281 41.8C182.891 52.45 162.941 6.67 126.361 18.16C111.581 25.09 119.931 15.59 121.931 9.17999C114.671 12.35 104.961 14.35 98.6809 19.26C96.7909 20.74 95.3409 24.17 92.7509 22.53V22.52ZM100.351 155.47C100.571 154.41 99.6909 147.28 101.161 146.81C108.091 148.54 114.751 156.9 119.631 162.09L191.621 152.99C193.491 152.44 195.751 144.23 196.211 142.23C199.181 125.96 201.551 106.56 190.751 92.65C189.491 92.36 189.291 95.8 188.521 96.64C174.771 115.15 181.781 97.79 176.141 89.77C176.361 94.97 173.971 100.73 170.631 104.65C164.371 111.98 165.961 103.87 164.081 100.64C156.201 87.87 122.991 91.29 117.881 73.95C115.271 76.97 119.061 89.97 116.351 91.74C114.211 93.13 112.831 89.54 111.091 88.42C107.931 86.4 103.091 86.49 100.611 83.07H99.9009C98.7609 88.13 92.7009 91.28 89.0909 86.43H88.3909C84.1809 94.86 70.5509 88.64 67.3409 102.39C68.6909 104.68 72.3609 106.01 72.0709 108.96C69.7509 109.25 68.3509 106.77 66.4709 105.69C51.8409 97.26 43.2109 131.62 58.4509 131.95C63.3609 132.06 65.4009 126.61 64.8709 137.74C79.9609 131.2 93.0809 143.3 100.361 155.49L100.351 155.47ZM41.3609 105.1C38.8109 105.67 35.5709 105.83 32.9509 105.6C23.3809 105.59 13.0809 83.37 4.20087 92.15C1.02087 99.39 11.4409 113.58 15.9609 119.24C17.1409 120.72 21.4109 124.16 21.2609 125.96C18.8009 130.82 8.63088 113.54 6.60088 111.35C-2.49912 121.28 6.87088 132.94 16.1109 138.29C17.6609 139.19 23.9609 141.48 24.1309 142.74C23.6309 147.57 8.45088 136.66 7.07088 134.37C1.61088 145.05 17.0309 153.17 26.2909 153.52C27.2509 155.45 25.1609 156.06 24.5409 157.6C22.2009 163.46 28.8209 167.75 33.9509 167.97C36.9909 168.1 39.7409 166.25 42.8009 166.51C42.2209 172.66 41.0209 177.22 47.6009 180.17C54.1809 183.12 59.8609 183 64.7709 177.3C57.2009 166.72 47.3209 149.94 61.5009 140.26V134.84C50.6909 137.27 46.1209 127.52 47.0109 118.38C44.3709 115.35 41.4409 109.63 41.3509 105.09L41.3609 105.1ZM71.9509 139.3C49.6909 144.41 58.2709 161.76 66.7709 175.41C70.6409 174.94 74.0609 169.53 77.8109 167.7C78.1409 166.4 71.3409 164.01 71.5409 161.48C71.8409 157.83 77.3409 163.09 78.4409 163.72C114.841 181.42 93.8109 137.06 71.9509 139.3ZM217.821 149.68C204.671 151.72 215.651 167.64 222.091 157.55C226.331 150.91 221.251 141.34 212.861 142.56C193.601 148.71 223.971 186.33 191.001 201.53C190.821 202.74 192.281 202.85 193.161 203.91C194.041 204.97 194.611 206.26 195.561 207.28C231.771 182.14 193.481 149.37 217.851 147.8L217.821 149.69V149.68ZM109.461 169.86C108.831 165.18 108.321 160.56 108.401 155.81L103.711 151.63L103.221 166.16L109.461 169.85V169.86ZM202.481 155.49C197.221 155.67 194.211 155.59 191.491 160.5C195.521 164.55 199.411 168.87 204.411 171.77L202.481 155.48V155.49ZM189.071 157.39L123.371 165.06L125.741 177.23C147.671 181.32 175.021 175.96 189.071 157.39ZM116.171 174.66C114.661 169.04 116.541 161.21 110.901 157.87C111.651 163.27 110.221 172.21 116.171 174.66ZM143.991 182.34L177.801 207.75C187.841 198.16 205.211 193.16 204.421 176.34C204.181 175.09 199.231 172.05 197.931 170.84C195.101 168.21 193.121 164.81 190.271 162.2C178.671 175.5 161.211 181.06 143.991 182.34ZM122.881 179.93C121.611 174.62 122.271 167.26 117.131 164.1C118.881 169.53 116.711 177.19 122.881 179.93ZM86.9209 170.82L79.7409 168.63L61.9909 183.53C75.1509 197.07 91.9509 206.88 109.931 212.55L101.681 184.11L87.1309 173.73C85.7309 172.99 87.0209 170.95 86.9309 170.82H86.9209ZM107.061 173.21L100.581 168.44L91.2309 172.26C96.9609 179.08 100.081 174.48 107.051 173.21H107.061ZM99.3909 178.02C99.1409 178.34 102.541 180.76 103.351 180.33L111.851 176.33C110.161 173.16 102.551 178.33 99.3909 178.01V178.02ZM118.571 181.85C115.471 175.35 110.041 180.83 105.151 182.09C108.761 186.19 113.931 181.6 118.571 181.85ZM134.401 182.33L131.521 182.57L134.391 184.25V182.34L134.401 182.33ZM139.191 182.33L136.841 182.38L135.901 185.55L137.991 187.6C139.351 186.21 139.231 184.11 139.191 182.33ZM202.971 242.77L202.491 240.62C176.691 222.18 151.731 202.6 126.961 182.81L125.281 184.26C150.541 204.44 176.091 224.99 202.971 242.77ZM60.5409 212.55C58.6709 205.48 61.8209 194.86 62.2709 188.55C62.0609 187.84 59.4109 184.96 58.8109 184.84C58.4309 184.77 51.9109 186.01 51.2909 186.26C49.0009 187.23 55.8809 196.74 55.8709 199.71C57.2309 203.21 56.8209 212.5 60.5409 212.55ZM127.521 194.64C128.191 193.97 128.661 192.77 129.601 192.17L121.481 185C118.971 184.6 108.551 189 105.151 186.66L111.871 209.68C112.961 209.87 112.631 209.62 112.941 209.07C117.241 192.46 115.731 205.04 127.521 194.64ZM174.201 214.95C175.431 210.31 176.591 210.91 172.771 207.51C162.711 200.15 151.371 192.74 141.601 184.73L140.221 189.45L174.201 214.95ZM210.171 197.2C221.041 200.76 226.991 191.11 216.151 184.74C215.411 184.42 215.501 184.97 215.341 185.33C213.661 189.01 213.071 193.77 210.171 197.2ZM46.4609 187.64C38.5409 194.87 35.2209 204.03 36.0709 214.73C36.8209 224.19 42.9309 233.23 46.2309 241.98C48.5809 245.7 52.1309 240.08 53.4309 237.82C58.6609 228.71 54.7809 221.9 51.0409 213.18C51.0109 211.31 54.4409 211.38 54.7509 210.34C53.4409 202.91 51.9109 192.89 46.4609 187.65V187.64ZM75.4109 223.1C70.0209 215.44 71.3009 205.87 71.5009 197.04L64.6209 190.98C62.5909 196.22 62.5809 205.02 63.2809 210.54C64.2509 215.15 70.2309 223.09 75.4109 223.11V223.1ZM122.411 202C127.221 204.81 136.171 193.21 131.761 194.33C129.231 197.38 125.461 199.51 122.411 202ZM166.531 220.71C156.451 213.21 146.561 205.36 136.791 197.44L135.411 197.26L132.961 201.03C137.831 203.89 143.511 206.85 148.171 210.04C155.601 215.19 158.921 219.62 168.441 222.14C168.251 221.21 167.091 221.13 166.521 220.71H166.531ZM78.3009 223.11C93.3509 213.58 105.171 226.04 107.041 216.21C98.6409 212.6 89.8309 209.77 82.1709 204.6C81.1509 203.97 73.9109 198.68 73.5009 199.13C73.3209 207.41 73.8909 215.98 78.3009 223.11ZM206.871 200.63C206.071 203.46 197.621 208.55 198.651 210.4C202.271 211.62 211.011 208.35 210.101 203.79C209.901 202.79 208.091 199.92 206.871 200.62V200.63ZM146.391 212.55L131.651 203.03C129.221 203.52 127.541 205.86 124.821 205.37C130.261 210.53 138.811 216.5 146.401 212.55H146.391ZM184.751 222.63C185.231 218.1 191.011 212.79 193.321 209.82C193.741 208.22 190.101 204.48 188.731 203.49C187.251 203.11 180.661 208.94 179.471 210.38C178.281 211.82 175.281 215.68 176.831 217.35C177.481 218.05 184.331 223.01 184.751 222.63ZM165.081 225.05C158.051 223.79 153.761 219.49 149.041 214.61C137.201 222.75 127.201 210.03 118.101 204.41L115.181 213.7C122.121 217.13 122.761 223.38 117.711 229.02L129.611 271.57C170.401 264.73 155.401 256.34 165.081 225.06V225.05ZM111.371 216.87C110.301 215.63 109.951 219.74 108.971 220.46C108.131 221.58 105.121 223.31 105.201 224.22C105.581 227.37 113.841 231.08 114.261 227.18C114.321 226.65 111.741 217.25 111.361 216.87H111.371ZM117.131 225.02C118.881 221.34 117.821 218.69 114.261 216.87C114.811 219.35 115.431 221.89 116.171 224.32C116.381 225 115.871 225.17 117.131 225.02ZM102.641 224.18C95.3909 221.67 86.9009 221.85 80.1909 225.77C86.4109 245.22 98.2309 241.55 102.151 253.69C102.641 255.91 102.411 263.36 103.701 264.13C106.491 265.81 111.941 260.1 112.851 257.44C113.691 254.97 113.981 248.82 112.551 246.64C100.651 240.76 105.491 234.46 102.641 224.18ZM165.171 244.13C166.931 244.99 172.651 246.94 174.221 245.9C174.991 245.39 177.051 232.85 179.771 231.28C179.971 230.53 172.441 224.93 171.451 224.63C165.671 227.56 164.941 237.88 165.171 244.13ZM209.861 231.43C205.561 235.83 205.961 240.76 206.111 246.15C192.041 242.07 185.791 257.81 194.631 268.64C204.911 280.96 231.401 282.39 246.171 280.46C247.281 264.94 246.831 242.88 233.901 231.75C227.151 226.28 216.371 224.72 209.861 231.43ZM174.201 249.01C170.821 249.28 167.521 248.26 164.611 246.61C164.991 285.27 119.381 261.19 130.671 288.47C136.011 301.34 150.051 290.5 146.001 282.25C144.101 278.37 137.331 278.19 137.221 283.31C137.191 284.54 138.441 287.38 136.771 287.16C135.101 286.94 134.681 283.36 134.901 281.9C136.741 269.18 171.031 289.11 174.201 249.01Z" fill="#0B0708"/>
<path d="M92.7505 22.5196C95.3405 24.1496 96.8005 20.7296 98.6805 19.2496C104.951 14.3296 114.661 12.3296 121.931 9.16963C119.991 15.5396 111.501 25.0996 126.361 18.1496C162.911 6.64963 182.931 52.4496 219.281 41.7896C218.061 52.2996 215.021 60.9896 206.801 67.4696C217.561 85.4396 220.921 105.2 202.511 120.46C202.121 109.84 200.671 99.8196 194.271 91.0396C185.321 78.7496 188.881 95.7096 181.891 99.3496C181.691 92.5096 178.231 83.8296 173.741 78.9396C169.571 76.6496 172.781 86.7496 172.811 88.0796C172.561 91.4496 171.531 99.5796 167.991 100.79C161.831 82.8896 127.581 90.3596 120.971 72.2696C120.261 70.2496 119.871 63.5896 116.451 67.7096C112.641 72.2896 113.431 80.4596 113.791 85.9196C111.291 83.4096 106.171 83.7896 103.891 81.4396C101.321 78.7896 102.341 72.4596 101.141 71.4896C96.0405 67.7796 100.291 86.7396 92.5305 85.3896C91.5205 85.0396 90.8205 80.5296 90.7805 79.4296C90.7105 77.8096 92.2906 72.8396 88.7106 73.9796C87.0806 74.4996 87.4305 80.3796 86.7005 82.5496C83.5505 92.1596 68.7606 84.7196 64.3605 101.22C55.0306 99.7196 51.0306 107.69 47.6306 114.7C44.1806 108.23 43.9305 101.15 44.5405 94.0396C39.0005 93.3096 34.0505 91.2896 31.3105 86.1696C40.9505 78.8696 40.5405 65.2496 45.2905 55.0496C50.0705 44.0496 61.8206 35.7496 74.0206 39.1896C75.2506 37.4096 73.9606 35.3296 74.0206 33.4696C74.1206 30.5796 75.1106 27.2896 75.9106 24.5196L78.8306 33.3396C79.2306 34.1996 80.4205 34.4296 81.2005 33.8996C81.6505 33.5896 83.5806 25.8996 84.1606 24.3896C86.2806 18.4096 90.9506 12.7196 95.0806 8.20964C96.0006 8.09964 95.3506 9.08963 95.2106 9.53963C93.9806 13.7396 92.2906 18.0596 92.7406 22.5196H92.7505Z" fill="#B40088"/>
<path d="M100.349 155.47C93.0592 143.27 79.9492 131.18 64.8592 137.72C65.3892 126.59 63.3392 132.04 58.4392 131.93C43.1892 131.6 51.8192 97.2299 66.4592 105.67C68.3392 106.75 69.7392 109.24 72.0592 108.94C72.3492 105.98 68.6792 104.66 67.3292 102.37C70.5892 88.5699 84.1192 94.8799 88.3792 86.3999H89.0792C92.6892 91.2599 98.7492 88.1099 99.8892 83.0399H100.599C103.079 86.4599 107.919 86.3699 111.079 88.3899C112.829 89.5099 114.199 93.0999 116.339 91.7099C119.049 89.9399 115.259 76.9399 117.869 73.9199C122.969 91.2499 156.209 87.8499 164.069 100.61C165.959 103.84 164.359 111.95 170.619 104.62C173.969 100.7 176.349 94.9399 176.129 89.7399C181.769 97.7699 174.769 115.11 188.509 96.6099C189.299 95.7599 189.469 92.3499 190.739 92.6199C201.539 106.54 199.169 125.93 196.199 142.2C195.739 144.2 193.489 152.42 191.609 152.96L119.619 162.06C114.749 156.88 108.069 148.5 101.149 146.78C99.6892 147.23 100.559 154.41 100.339 155.44L100.349 155.47ZM106.709 96.5799C106.419 96.8099 106.339 97.3799 106.199 97.7499C106.789 100.71 110.089 98.5499 111.719 99.2099C113.889 100.09 113.849 104.12 116.819 103.12C120.669 100.94 113.169 92.6599 106.709 96.5899V96.5799ZM107.379 108.15C103.529 108.19 99.1592 112.4 97.8392 115.78C96.0292 120.43 101.639 119.56 104.769 120.58C110.089 121.26 112.529 130.52 115.159 124.47C117.809 118.82 114.689 108.08 107.379 108.15ZM180.309 113.37C177.809 113.8 173.679 116.72 176.119 119.28C177.479 120.14 179.869 117.33 181.679 117.11C183.999 116.82 185.759 119.08 187.899 117.61C189.589 113.1 183.379 112.85 180.309 113.38V113.37ZM178.869 124.4C171.199 125.71 169.939 138.14 176.429 141.96C190.249 146.76 195.819 122.07 178.869 124.4ZM124.319 134.84C126.829 135.11 128.429 134.8 127.459 131.94C121.079 127.74 111.919 141.22 120.959 136.76C121.609 151.94 145.419 151.6 138.849 144.5C131.399 147.42 124.539 142.73 124.319 134.84Z" fill="#F0A6A6"/>
<path d="M41.3592 105.1C41.4492 109.63 44.3792 115.36 47.0192 118.39C46.1192 127.52 50.7192 137.29 61.4992 134.85V140.27C47.3192 149.95 57.1992 166.73 64.7792 177.31C59.8592 183 54.1692 183.12 47.6092 180.18C41.0492 177.24 42.2292 172.66 42.8092 166.52C39.7492 166.26 36.9992 168.1 33.9592 167.98C28.8292 167.77 22.2092 163.48 24.5492 157.61C25.1592 156.07 27.2592 155.46 26.2992 153.53C17.0492 153.19 1.60923 145.05 7.07923 134.38C8.43923 136.65 23.6392 147.58 24.1392 142.75C23.9692 141.48 17.6692 139.19 16.1192 138.3C6.87922 132.95 -2.49077 121.3 6.60923 111.36C8.64923 113.56 18.7892 130.81 21.2692 125.97C21.4192 124.17 17.1492 120.73 15.9692 119.25C11.4492 113.59 1.02923 99.3996 4.20923 92.1596C13.0992 83.3796 23.3792 105.6 32.9592 105.61C35.5792 105.85 38.8192 105.68 41.3692 105.11L41.3592 105.1ZM40.8792 119.97C42.4192 118.45 36.3092 114.88 35.2692 114.31C23.5692 107.84 20.3192 117.88 28.9192 124.02C29.6292 124.53 33.7492 126.86 33.2092 124.54C30.1392 122.58 25.0492 119.1 26.9692 114.94C30.5992 111.85 39.5092 121.33 40.8792 119.98V119.97ZM30.8692 132.98C31.5492 131.89 37.1792 132.78 38.4992 133.14C40.6692 133.73 44.5092 136.67 45.4592 136.77C50.2292 136.27 43.6992 131.66 41.8292 131.25C37.7292 129.51 27.2892 127.55 27.9492 134.54C28.2292 137.53 32.0892 140.91 32.1092 141.31C32.1392 141.78 31.0792 143.14 31.3092 145.1C31.7892 149.19 39.1992 155.16 42.7992 152.84C45.5292 150.59 33.4992 150.92 34.1492 143.47L40.0892 144.88C42.8392 141.91 36.6792 140.98 34.3692 139.16C33.0492 138.12 29.7192 134.76 30.8492 132.97L30.8692 132.98Z" fill="#EEE1D9"/>
<path d="M209.86 231.43C216.37 224.72 227.14 226.28 233.9 231.75C246.84 242.88 247.28 264.94 246.17 280.46C231.4 282.38 204.91 280.96 194.62 268.64C185.8 257.81 192.02 242.08 206.1 246.15C205.95 240.79 205.56 235.8 209.85 231.43H209.86ZM231.37 243.63C229.91 240.53 226.29 238.97 223.77 242.26C222.92 242.41 222.06 239.93 219.75 241.09C219.49 241.22 216.09 245.24 216 245.52C215.33 247.78 217.47 248.32 217.32 249.19L211.54 257.11L208.58 256.26C206.29 258.22 202.68 261.47 206.84 263.21C204.39 268.17 207.02 267.85 210.53 269.75C211.03 272.75 214.48 276.15 216.67 272.49C223.42 276.28 231.51 272.36 230.82 263.93C239.11 263.31 240.64 255.99 235.64 250.62C235.44 249.62 237.79 247.99 236.93 246.47C235.4 244.36 233.63 243.69 231.34 243.63H231.37Z" fill="#F7208E"/>
<path d="M143.99 182.34C161.21 181.05 178.66 175.5 190.27 162.2C193.12 164.81 195.1 168.21 197.93 170.84C199.24 172.05 204.18 175.1 204.42 176.34C205.19 193.17 187.84 198.16 177.8 207.75L143.99 182.34ZM177.19 178.4C178.16 180.17 189.41 182.38 190.42 186.54C191.43 190.7 185.4 190.14 183.04 190.93C180.69 194.25 189.48 194.3 191.96 191.22C198.52 183.05 182.55 177.76 177.09 176.58C177.14 177.16 176.91 177.88 177.19 178.4ZM166.12 198.1C186.49 203.6 180.8 184.02 162.02 182.39L161.26 184.25C164.98 185.02 175.08 188.19 176.02 192.27C177.68 199.44 168.63 194.41 166.36 195.74L166.11 198.1H166.12Z" fill="#EDE0D8"/>
<path d="M86.9205 170.82C87.0105 170.95 85.7205 172.99 87.1205 173.73L101.67 184.11L109.92 212.55C91.9405 206.88 75.1305 197.07 61.9805 183.53L79.7305 168.63L86.9105 170.82H86.9205Z" fill="#EFA5A5"/>
<path d="M71.9503 139.3C93.8303 137.07 114.82 181.41 78.4403 163.72C77.3503 163.09 71.8403 157.83 71.5503 161.48C71.3403 164.01 78.1503 166.4 77.8203 167.7C74.0703 169.53 70.6403 174.93 66.7803 175.41C58.2803 161.76 49.7203 144.39 71.9603 139.3H71.9503Z" fill="#EFA5A5"/>
<path d="M189.069 157.39C175.019 175.96 147.669 181.31 125.739 177.23L123.369 165.06L189.069 157.39Z" fill="#EFA5A5"/>
<path d="M46.4609 187.64C51.9209 192.88 53.4409 202.89 54.7509 210.33C54.4409 211.37 51.0109 211.31 51.0409 213.17C54.7809 221.89 58.6609 228.7 53.4309 237.81C52.1309 240.07 48.5809 245.69 46.2309 241.97C42.9309 233.22 36.8209 224.18 36.0709 214.72C35.2209 204.02 38.5409 194.87 46.4609 187.63V187.64Z" fill="#EFA5A5"/>
<path d="M102.639 224.18C105.489 234.49 100.659 240.75 112.549 246.64C113.979 248.82 113.689 254.97 112.849 257.44C111.939 260.1 106.479 265.81 103.699 264.13C102.409 263.35 102.639 255.9 102.149 253.69C98.3192 241.64 86.3892 245.17 80.1992 225.77C86.9092 221.85 95.3992 221.67 102.649 224.18H102.639Z" fill="#EFA5A5"/>
<path d="M174.2 249.01C171 289.15 136.78 269.15 134.9 281.9C134.68 283.36 135.08 286.94 136.77 287.16C138.46 287.38 137.2 284.54 137.22 283.31C137.33 278.19 144.09 278.37 146 282.25C150.05 290.5 136.01 301.34 130.67 288.47C119.36 261.24 165.03 285.21 164.61 246.61C167.52 248.26 170.82 249.28 174.2 249.01Z" fill="#F97573"/>
<path d="M217.819 149.68L217.849 147.79C193.539 149.29 231.719 182.24 195.559 207.27C194.609 206.25 194.049 204.97 193.159 203.9C192.269 202.83 190.809 202.73 190.999 201.52C224.029 186.2 193.549 148.82 212.859 142.55C221.259 141.33 226.329 150.9 222.099 157.54C215.659 167.63 204.689 151.71 217.829 149.67L217.819 149.68Z" fill="#F87472"/>
<path d="M78.2991 223.11C73.8891 215.98 73.3191 207.4 73.4991 199.13C73.9091 198.68 81.1491 203.97 82.1691 204.6C89.8291 209.77 98.6391 212.6 107.039 216.21C105.199 226.03 93.3191 213.59 78.2991 223.11Z" fill="#FA9C9C"/>
<path d="M127.52 194.64C115.79 205.01 117.21 192.48 112.94 209.07C112.63 209.63 112.96 209.88 111.87 209.68L105.15 186.66C108.53 189 118.99 184.59 121.48 185L129.6 192.17C128.67 192.77 128.19 193.97 127.52 194.64Z" fill="#EDA4A4"/>
<path d="M165.171 244.13C164.941 237.89 165.671 227.55 171.451 224.63C172.441 224.93 179.971 230.53 179.771 231.28C177.061 232.85 175.001 245.39 174.221 245.9C172.651 246.94 166.931 244.99 165.171 244.13Z" fill="#FA9C9C"/>
<path d="M75.4098 223.1C70.2298 223.09 64.2498 215.14 63.2798 210.54C62.5798 205.01 62.5998 196.22 64.6198 190.98L71.4998 197.04C71.3098 205.87 70.0198 215.44 75.4098 223.1Z" fill="#F89B9B"/>
<path d="M202.969 242.77C176.089 224.99 150.549 204.44 125.279 184.26L126.959 182.81C151.729 202.6 176.689 222.18 202.489 240.62L202.969 242.77Z" fill="#92004D"/>
<path d="M174.201 214.95L140.221 189.45L141.601 184.73C151.371 192.73 162.711 200.15 172.771 207.51C176.591 210.91 175.431 210.31 174.201 214.95Z" fill="#E9A2A2"/>
<path d="M184.75 222.63C184.33 223.01 177.48 218.05 176.83 217.35C175.28 215.68 178.23 211.88 179.47 210.38C180.71 208.88 187.26 203.11 188.73 203.49C190.11 204.47 193.74 208.21 193.32 209.82C190.99 212.81 185.24 218.09 184.75 222.63Z" fill="#FA9C9C"/>
<path d="M60.5398 212.55C56.7798 212.59 57.2598 203.15 55.8698 199.71C55.8498 196.66 49.0398 187.35 51.2898 186.26C51.9098 186.01 58.4298 184.76 58.8098 184.84C59.3998 184.96 62.0498 187.83 62.2698 188.55C61.8098 194.88 58.6698 205.46 60.5398 212.55Z" fill="#F89B9B"/>
<path d="M166.531 220.71L165.571 221.19C152.781 215.51 145.511 206.81 132.961 201.04L135.411 197.27L136.791 197.45C146.561 205.37 156.441 213.21 166.531 220.72V220.71Z" fill="#E59F9F"/>
<path d="M146.391 212.55C138.801 216.5 130.251 210.53 124.811 205.37C127.531 205.86 129.221 203.52 131.641 203.03L146.381 212.55H146.391Z" fill="#E9DCD5"/>
<path d="M210.17 197.2C213.07 193.77 213.66 189.01 215.34 185.33C215.51 184.96 215.42 184.41 216.15 184.74C227 191.11 221.02 200.75 210.17 197.2Z" fill="#E9DCD5"/>
<path d="M109.461 169.86L103.221 166.17L103.711 151.64L108.401 155.82C108.311 160.57 108.831 165.19 109.461 169.87V169.86Z" fill="#CB7A92"/>
<path d="M107.06 173.21C100.08 174.48 96.9502 179.08 91.2402 172.26L100.59 168.44L107.07 173.21H107.06Z" fill="#CB7A92"/>
<path d="M111.371 216.87C111.751 217.24 114.331 226.65 114.271 227.18C113.841 231.08 105.591 227.37 105.211 224.22C105.131 223.31 108.141 221.58 108.981 220.46C109.971 219.73 110.291 215.64 111.371 216.87Z" fill="#F49999"/>
<path d="M206.87 200.63C208.09 199.92 209.9 202.8 210.1 203.8C211.02 208.36 202.27 211.63 198.65 210.41C197.59 208.6 206.09 203.44 206.87 200.64V200.63Z" fill="#E9DCD5"/>
<path d="M116.17 174.66C110.23 172.21 111.65 163.28 110.9 157.87C116.53 161.21 114.66 169.04 116.17 174.66Z" fill="#C77890"/>
<path d="M122.881 179.93C116.711 177.19 118.881 169.53 117.131 164.1C122.271 167.26 121.601 174.62 122.881 179.93Z" fill="#C77890"/>
<path d="M118.57 181.85C113.93 181.6 108.76 186.19 105.15 182.09C110.04 180.83 115.48 175.35 118.57 181.85Z" fill="#C77890"/>
<path d="M99.3901 178.02C102.57 178.34 110.14 173.17 111.85 176.34L103.35 180.34C102.53 180.77 99.1401 178.35 99.3901 178.03V178.02Z" fill="#C77890"/>
<path d="M122.41 202C125.45 199.5 129.24 197.37 131.76 194.33C136.17 193.22 127.2 204.82 122.41 202Z" fill="#E99494"/>
<path d="M117.13 225.02C115.87 225.17 116.37 224.99 116.17 224.32C115.43 221.89 114.81 219.35 114.26 216.87C117.82 218.69 118.87 221.34 117.13 225.02Z" fill="#E99494"/>
<path d="M139.19 182.33C139.23 184.11 139.35 186.21 137.99 187.6L135.9 185.55L136.84 182.38L139.19 182.33Z" fill="#E99494"/>
<path d="M134.4 182.33V184.25L131.52 182.57L134.4 182.33Z" fill="#C77890"/>
<path d="M166.53 220.71C167.1 221.14 168.26 221.21 168.45 222.14C167.25 222.43 166.42 221.51 165.57 221.19L166.53 220.71Z" fill="#92004D"/>
<path d="M178.871 124.4C195.821 122.07 190.241 146.76 176.431 141.96C169.941 138.13 171.211 125.71 178.871 124.4Z" fill="#040303"/>
<path d="M107.38 108.15C114.69 108.08 117.81 118.82 115.16 124.47C112.54 130.52 110.08 121.25 104.77 120.58C101.65 119.56 96.0296 120.43 97.8396 115.78C99.1596 112.4 103.53 108.18 107.38 108.15Z" fill="#040303"/>
<path d="M124.321 134.839C124.551 142.729 131.401 147.42 138.851 144.5C145.421 151.61 121.591 151.92 120.961 136.76C111.911 141.22 121.101 127.74 127.461 131.94C128.431 134.8 126.831 135.109 124.321 134.839Z" fill="#0B0708"/>
<path d="M180.31 113.37C183.37 112.85 189.59 113.1 187.9 117.6C185.76 119.07 184 116.81 181.68 117.1C179.86 117.33 177.48 120.14 176.12 119.27C173.68 116.71 177.82 113.79 180.31 113.36V113.37Z" fill="#0B0708"/>
<path d="M106.709 96.5797C113.179 92.6497 120.659 100.93 116.819 103.11C113.849 104.11 113.889 100.08 111.719 99.1997C110.099 98.5397 106.789 100.7 106.199 97.7397C106.329 97.3797 106.419 96.8097 106.709 96.5697V96.5797Z" fill="#0B0708"/>
<path d="M30.8702 132.98C29.7502 134.77 33.0802 138.13 34.3902 139.17C36.7002 140.99 42.8602 141.93 40.1102 144.89L34.1702 143.48C33.5102 150.93 45.4902 150.56 42.8202 152.85C39.2102 155.17 31.8002 149.2 31.3302 145.11C31.1002 143.15 32.1602 141.78 32.1302 141.32C32.1002 140.92 28.2502 137.55 27.9702 134.55C27.3002 127.56 37.7502 129.52 41.8502 131.26C43.7202 131.67 50.2602 136.27 45.4802 136.78C44.5302 136.68 40.6902 133.74 38.5202 133.15C37.2002 132.79 31.5702 131.91 30.8902 132.99L30.8702 132.98Z" fill="#0F0C0C"/>
<path d="M40.8794 119.97C39.5094 121.32 30.6094 111.84 26.9694 114.93C25.0494 119.09 30.1394 122.58 33.2094 124.53C33.7594 126.85 29.6294 124.53 28.9194 124.01C20.3194 117.87 23.5794 107.83 35.2694 114.3C36.3094 114.87 42.4194 118.44 40.8794 119.96V119.97Z" fill="#161211"/>
<path d="M231.369 243.63C233.659 243.69 235.419 244.34 236.959 246.47C237.819 247.99 235.469 249.62 235.669 250.62C240.669 255.98 239.129 263.32 230.849 263.93C231.529 272.36 223.459 276.28 216.699 272.49C214.509 276.14 211.059 272.76 210.559 269.75C207.059 267.86 204.409 268.17 206.869 263.21C202.719 261.49 206.319 258.21 208.609 256.26L211.569 257.11L217.349 249.19C217.499 248.33 215.359 247.78 216.029 245.52C216.109 245.24 219.519 241.22 219.779 241.09C222.089 239.93 222.949 242.41 223.799 242.26C226.309 238.97 229.939 240.53 231.399 243.63H231.369ZM228.389 243.26C225.349 241.95 225.489 247.98 221.379 243.77L218.839 245.96C218.689 246.83 220.839 247.36 220.159 249.63C219.949 250.35 215.339 256.36 214.479 257.4C212.829 259.39 211.579 262.06 209.429 259.11C206.389 260.27 209.019 261.82 209.229 263.21C209.439 264.6 207.639 265.86 208.739 266.53C210.089 267.35 210.299 264.28 212.269 264.47C213.529 264.59 215.739 267.01 215.399 268.35C215.129 269.39 212.709 270.03 214.269 271.08C217.549 266.46 219.689 272.68 224.459 270.73C228.629 269.02 227.969 264.6 227.459 261.02C236.879 261.65 238.209 257.29 232.359 250.63L234.179 247.35C232.189 245.23 232.309 247.95 230.679 248.68C229.159 249.36 227.459 247.85 226.959 246.36L228.419 243.27L228.389 243.26Z" fill="#0E0408"/>
<path d="M166.12 198.1L166.37 195.74C168.64 194.41 177.69 199.44 176.03 192.27C175.08 188.19 164.99 185.02 161.27 184.25L162.03 182.39C180.78 184 186.54 203.6 166.13 198.1H166.12Z" fill="#0F0C0C"/>
<path d="M177.191 178.4C176.911 177.89 177.141 177.16 177.091 176.58C182.551 177.76 198.521 183.05 191.961 191.22C189.481 194.31 180.691 194.25 183.041 190.93C185.401 190.14 191.391 190.52 190.421 186.54C189.451 182.56 178.161 180.16 177.191 178.4Z" fill="#0F0C0C"/>
<path d="M228.39 243.26L226.93 246.35C227.43 247.84 229.13 249.35 230.65 248.67C232.28 247.95 232.16 245.22 234.15 247.34L232.33 250.62C238.19 257.29 236.83 261.63 227.43 261.01C227.95 264.59 228.6 269.01 224.43 270.72C219.66 272.68 217.52 266.45 214.24 271.07C212.69 270.02 215.11 269.38 215.37 268.34C215.72 267.01 213.51 264.59 212.24 264.46C210.27 264.27 210.06 267.33 208.71 266.52C207.61 265.86 209.41 264.62 209.2 263.2C208.99 261.78 206.36 260.25 209.4 259.1C211.55 262.06 212.8 259.38 214.45 257.39C215.31 256.35 219.92 250.34 220.13 249.62C220.81 247.36 218.66 246.82 218.81 245.95L221.35 243.76C225.47 247.97 225.31 241.95 228.36 243.25L228.39 243.26ZM226.34 250.52C215.74 258.35 232.9 261 231.17 254.65C230.88 253.48 227.93 249.88 226.34 250.52ZM218.67 258.67C217.71 258.94 214.16 262.79 214.53 264.05C214.69 264.59 218.12 266.35 218.79 266.54C226.17 268.58 222.58 257.58 218.67 258.68V258.67Z" fill="#F49999"/>
<path d="M218.671 258.67C222.581 257.57 226.171 268.57 218.791 266.53C218.121 266.34 214.691 264.58 214.531 264.04C214.161 262.79 217.711 258.93 218.671 258.66V258.67ZM217.841 263.39C218.971 263.31 219.871 265 220.711 263.63L219.031 261.49L217.831 263.39H217.841Z" fill="#0B0708"/>
<path d="M226.339 250.52C227.929 249.88 230.879 253.49 231.169 254.65C232.899 261 215.739 258.35 226.339 250.52ZM228.869 255.72L227.129 253.36C224.069 254.48 226.579 255.89 228.869 255.72ZM229.349 256.69C227.029 257.19 225.639 255.73 223.599 255.25C223.859 256.79 229.049 258.12 229.349 256.69Z" fill="#0F0C0C"/>
<path d="M217.84 263.39L219.04 261.49L220.72 263.63C219.88 265 218.98 263.31 217.85 263.39H217.84Z" fill="#B40088"/>
<path d="M228.871 255.72C226.581 255.89 224.071 254.48 227.131 253.36L228.871 255.72Z" fill="#F7208E"/>
<path d="M229.35 256.69C229.05 258.12 223.87 256.79 223.6 255.25C225.64 255.73 227.03 257.19 229.35 256.69Z" fill="#92004D"/>
<ellipse cx="140" cy="333.5" rx="110" ry="5.5" fill="#616161"/>
</svg>
