<?xml version="1.0" encoding="UTF-8"?><svg xmlns="http://www.w3.org/2000/svg" viewBox="0 0 540 756"><defs><style>.cls-1{fill:#fff;}.cls-2{mix-blend-mode:soft-light;}.cls-3{isolation:isolate;}.cls-4{fill:#625bbf;}</style></defs><g class="cls-3"><g id="Background"><circle class="cls-4" cx="108.27" cy="575.71" r="45.86"/><g class="cls-2"><path class="cls-1" d="M107.66,565.07c.96,0,1.46-.32,1.6-.49-.19-.18-.95-.59-2.81-.59-.45,0-.92.03-1.39.09.34.55,1.06.99,2.6.99Z"/><path class="cls-1" d="M98.82,584.43c2.88-1.06,5.61-3.44,7.79-6.88,1.02-1.8,1.63-3.49,1.74-4.81-3.84,2.87-7.41,6.9-9.53,11.7Z"/><path class="cls-1" d="M107.37,570.37c-.28-.12-.62-.18-1.02-.18-2.51,0-4.48,1.71-5.69,3.14-2.02,2.39-3.21,5.58-3.2,7.32,2.55-4.25,6.14-7.75,9.91-10.29Z"/><path class="cls-1" d="M97.5,564.22c.45-1.31.68-2.48.68-3.5,0-.86-.17-2.02-.98-2.64-.42-.31-.64-.75-.64-1.29,0-.83.63-1.45,1.45-1.45.38,0,.74.13,1.11.4,1.21.85,1.86,2.33,1.86,4.28,0,.85-.12,1.78-.36,2.76.29-.11.58-.2.87-.29-.02-.22-.03-.45-.03-.7,0-.99.21-2.06.62-3.17.22-.6.47-1.14.76-1.67-.14-.13-.28-.25-.41-.38-1.41-1.32-2.63-2.46-6.38-2.46-9.74,0-18.09,9.25-18.09,16.83,0,3.64,1.87,5.26,6.07,5.26,1.53,0,2.63-.35,4.09-1.04.17-.47.39-.98.66-1.56,1.9-3.91,4.99-7.21,8.73-9.36Z"/><path class="cls-1" d="M116.1,554.38c.12-.38.2-.73.2-.94,0-.84-.68-1.27-2.03-1.27-1.81,0-5.27,1.48-7.49,4.63.99.52,2.31.94,4.31.94,2.84-.14,4.59-2.13,5.01-3.36Z"/><path class="cls-1" d="M125.59,577.3c.55-1.47.48-2.17.36-2.34-.02-.03-.11-.05-.23-.05-1.51,0-5.62,3.66-7.8,9.64-.53,1.5-.71,2.87-.53,3.84,3.85-3.4,6.94-7.56,8.19-11.08v-.02Z"/><path class="cls-1" d="M130.01,568.55c-5.78,0-15.3,9.21-19.59,18.94-1.05,2.44-1.72,4.71-1.95,6.66,2.25-.92,4.58-2.3,6.87-4.06-.77-1.56-.71-3.75.19-6.18,2.23-6.23,6.89-11.31,10.38-11.31,1.18,0,1.81.55,2.13,1.02.67.97.64,2.44-.08,4.38-1.4,3.86-4.69,8.29-8.93,12.04.16.02.33.04.52.04,2.85-.08,8.5-4.26,12.05-13.3,1.33-3.4,1.62-6.06.78-7.29-.43-.63-1.21-.94-2.37-.94Z"/><path class="cls-1" d="M108.27,538.79c-20.39,0-36.92,16.53-36.92,36.92s16.53,36.92,36.92,36.92,36.92-16.53,36.92-36.92-16.53-36.92-36.92-36.92ZM119.43,592.39h0c-.99,0-1.82-.2-2.52-.6-2.77,2.16-5.65,3.83-8.43,4.88.31,3.08,2.18,4.83,5.22,4.83,5.69,0,12.19-4.62,14.69-8.94.31-.52.81-.8,1.37-.8h.56l.36.5c.33.54.07,1.06-.12,1.45-2.81,4.93-10.11,10.2-17.06,10.2-4.24,0-7.28-2.4-8.18-6.33-1.15.25-2.3.37-3.44.37-3.61,0-5.43-1.56-6.33-2.86-1.28-1.87-1.59-4.62-.93-7.64-4.52-.24-7.42-3.18-7.42-7.64,0-.62.06-1.26.17-1.94-1,.35-2.14.61-3.46.61-5.64,0-8.88-2.92-8.88-8.02,0-8.41,9.74-18.67,21.1-18.67,4.31,0,6.35,1.67,8.13,3.16,2.84-3.34,7.11-5.08,10.1-5.08,3.68,0,4.99,1.87,4.99,3.63,0,.56-.08,1.02-.27,1.51-.6,1.68-3.06,4.93-8.07,5.09h0c-2.13,0-3.87-.38-5.4-1.18-.06.13-.11.27-.17.4-.35.93-.57,1.76-.66,2.46.62-.07,1.2-.1,1.75-.1,3.79,0,5.14,1.48,5.14,2.87s-1.42,2.82-4.13,2.82c-2.44,0-4.32-.94-5.32-2.6-.92.33-1.85.76-2.78,1.29-1.69,3.83-4.63,7.42-7.95,9.7-.61,1.62-.93,3.17-.93,4.5,0,3.06,1.69,4.76,4.75,4.8.02-.06.04-.12.06-.19.26-.69.56-1.36.88-2.02-.09.02-.19.03-.29.03-.63,0-1.16-.43-1.32-1.06-.06-.23-.13-.57-.13-.95,0-3.87,5.03-12.97,11.91-12.97,1.33,0,2.43.37,3.28,1.03,2.08-1.18,4.16-2.07,6.07-2.63.6-.17,1.08-.09,1.41.23l.42.41-.14.64c-.13.47-.56.86-1.11.99-1.66.47-3.44,1.26-5.22,2.3.22.61.34,1.3.34,2.06,0,1.86-.7,4.02-1.97,6.08-2.91,4.4-7.25,7.37-11.73,8.21-.86,2.93-.82,5.27.14,6.66.77,1.1,2.18,1.66,4.21,1.66.93,0,1.9-.11,2.95-.34-.04-2.48.63-5.33,1.99-8.5,4.32-9.88,14.62-20.45,23.09-20.45,2.23,0,3.86.72,4.83,2.14,1.72,2.51.81,6.34-.26,9.12-3.58,9.18-10.59,14.77-15.3,14.88Z"/></g></g></g></svg>