<svg xmlns="http://www.w3.org/2000/svg" viewBox="0 0 540 756">
    <defs><style>.Brown-cls-1-3{stroke:#c7b299;stroke-miterlimit:10;stroke-width:4px;}.Brown-cls-1-3,.Brown-cls-2-6{fill:#fff;}.Brown-cls-3-5{mix-blend-mode:soft-light;}.Brown-cls-4-0{isolation:isolate;}.Brown-cls-5-2{fill:#3f352c;}.Brown-cls-6-4{fill:#625bbf;}.Brown-cls-7-1{fill:#f7f7f7;}</style></defs><g class="Brown-cls-4-0"><g id="Background"><rect class="Brown-cls-7-1" x=".15" y=".15" width="539.08" height="757.15"/><rect class="Brown-cls-5-2" x=".15" y=".15" width="539.69" height="573.86"/><path class="Brown-cls-1-3" d="M.15.15v757.14h539.08V.15H.15ZM504.23,722.29H35.15V35.15h469.08v687.14Z"/><circle class="Brown-cls-6-4" cx="108.27" cy="575.71" r="45.86"/><g class="Brown-cls-3-5"><path class="Brown-cls-2-6" d="M107.66,565.07c.96,0,1.46-.32,1.6-.49-.19-.18-.95-.59-2.81-.59-.45,0-.92.03-1.39.09.34.55,1.06.99,2.6.99Z"/><path class="Brown-cls-2-6" d="M98.82,584.43c2.88-1.06,5.61-3.44,7.79-6.88,1.02-1.8,1.63-3.49,1.74-4.81-3.84,2.87-7.41,6.9-9.53,11.7Z"/><path class="Brown-cls-2-6" d="M107.37,570.37c-.28-.12-.62-.18-1.02-.18-2.51,0-4.48,1.71-5.69,3.14-2.02,2.39-3.21,5.58-3.2,7.32,2.55-4.25,6.14-7.75,9.91-10.29Z"/><path class="Brown-cls-2-6" d="M97.5,564.22c.45-1.31.68-2.48.68-3.5,0-.86-.17-2.02-.98-2.64-.42-.31-.64-.75-.64-1.29,0-.83.63-1.45,1.45-1.45.38,0,.74.13,1.11.4,1.21.85,1.86,2.33,1.86,4.28,0,.85-.12,1.78-.36,2.76.29-.11.58-.2.87-.29-.02-.22-.03-.45-.03-.7,0-.99.21-2.06.62-3.17.22-.6.47-1.14.76-1.67-.14-.13-.28-.25-.41-.38-1.41-1.32-2.63-2.46-6.38-2.46-9.74,0-18.09,9.25-18.09,16.83,0,3.64,1.87,5.26,6.07,5.26,1.53,0,2.63-.35,4.09-1.04.17-.47.39-.98.66-1.56,1.9-3.91,4.99-7.21,8.73-9.36Z"/><path class="Brown-cls-2-6" d="M116.1,554.38c.12-.38.2-.73.2-.94,0-.84-.68-1.27-2.03-1.27-1.81,0-5.27,1.48-7.49,4.63.99.52,2.31.94,4.31.94,2.84-.14,4.59-2.13,5.01-3.36Z"/><path class="Brown-cls-2-6" d="M125.59,577.3c.55-1.47.48-2.17.36-2.34-.02-.03-.11-.05-.23-.05-1.51,0-5.62,3.66-7.8,9.64-.53,1.5-.71,2.87-.53,3.84,3.85-3.4,6.94-7.56,8.19-11.08v-.02Z"/><path class="Brown-cls-2-6" d="M130.01,568.55c-5.78,0-15.3,9.21-19.59,18.94-1.05,2.44-1.72,4.71-1.95,6.66,2.25-.92,4.58-2.3,6.87-4.06-.77-1.56-.71-3.75.19-6.18,2.23-6.23,6.89-11.31,10.38-11.31,1.18,0,1.81.55,2.13,1.02.67.97.64,2.44-.08,4.38-1.4,3.86-4.69,8.29-8.93,12.04.16.02.33.04.52.04,2.85-.08,8.5-4.26,12.05-13.3,1.33-3.4,1.62-6.06.78-7.29-.43-.63-1.21-.94-2.37-.94Z"/><path class="Brown-cls-2-6" d="M108.27,538.79c-20.39,0-36.92,16.53-36.92,36.92s16.53,36.92,36.92,36.92,36.92-16.53,36.92-36.92-16.53-36.92-36.92-36.92ZM119.43,592.39h0c-.99,0-1.82-.2-2.52-.6-2.77,2.16-5.65,3.83-8.43,4.88.31,3.08,2.18,4.83,5.22,4.83,5.69,0,12.19-4.62,14.69-8.94.31-.52.81-.8,1.37-.8h.56l.36.5c.33.54.07,1.06-.12,1.45-2.81,4.93-10.11,10.2-17.06,10.2-4.24,0-7.28-2.4-8.18-6.33-1.15.25-2.3.37-3.44.37-3.61,0-5.43-1.56-6.33-2.86-1.28-1.87-1.59-4.62-.93-7.64-4.52-.24-7.42-3.18-7.42-7.64,0-.62.06-1.26.17-1.94-1,.35-2.14.61-3.46.61-5.64,0-8.88-2.92-8.88-8.02,0-8.41,9.74-18.67,21.1-18.67,4.31,0,6.35,1.67,8.13,3.16,2.84-3.34,7.11-5.08,10.1-5.08,3.68,0,4.99,1.87,4.99,3.63,0,.56-.08,1.02-.27,1.51-.6,1.68-3.06,4.93-8.07,5.09h0c-2.13,0-3.87-.38-5.4-1.18-.06.13-.11.27-.17.4-.35.93-.57,1.76-.66,2.46.62-.07,1.2-.1,1.75-.1,3.79,0,5.14,1.48,5.14,2.87s-1.42,2.82-4.13,2.82c-2.44,0-4.32-.94-5.32-2.6-.92.33-1.85.76-2.78,1.29-1.69,3.83-4.63,7.42-7.95,9.7-.61,1.62-.93,3.17-.93,4.5,0,3.06,1.69,4.76,4.75,4.8.02-.06.04-.12.06-.19.26-.69.56-1.36.88-2.02-.09.02-.19.03-.29.03-.63,0-1.16-.43-1.32-1.06-.06-.23-.13-.57-.13-.95,0-3.87,5.03-12.97,11.91-12.97,1.33,0,2.43.37,3.28,1.03,2.08-1.18,4.16-2.07,6.07-2.63.6-.17,1.08-.09,1.41.23l.42.41-.14.64c-.13.47-.56.86-1.11.99-1.66.47-3.44,1.26-5.22,2.3.22.61.34,1.3.34,2.06,0,1.86-.7,4.02-1.97,6.08-2.91,4.4-7.25,7.37-11.73,8.21-.86,2.93-.82,5.27.14,6.66.77,1.1,2.18,1.66,4.21,1.66.93,0,1.9-.11,2.95-.34-.04-2.48.63-5.33,1.99-8.5,4.32-9.88,14.62-20.45,23.09-20.45,2.23,0,3.86.72,4.83,2.14,1.72,2.51.81,6.34-.26,9.12-3.58,9.18-10.59,14.77-15.3,14.88Z"/></g></g></g>
    <defs><style>.Bit_Cream-cls-1-4{fill:#fdbf6c;}.Bit_Cream-cls-2-5{fill:#fff;}.Bit_Cream-cls-3-1{opacity:.3;}.Bit_Cream-cls-4-2{fill:#fd2d4a;}.Bit_Cream-cls-5-3{fill:#b91214;}.Bit_Cream-cls-6-0{fill:#0d0908;}</style></defs><path class="Bit_Cream-cls-6-0" d="M180.32,440.16c-5.03-30.86-7.26-62.35-12.75-93.08-24.24-24,12.51-41.27,32.19-47.06,7.94-17.39,24.74-37.5,43.86-42.26-47.36-40.62-12.4-100.5,33.81-69.62,12.62-8.66,28.66-14.19,43.86-8.15l8.15-19.33c1.85-2.35,10.49,1.85,11.94,4.29,2.69,7.55-4.57,17.07-5.7,24.9,17.25,25.02,1.16,54.93-18.68,72.71,15.78,6.67,25.75,23.12,29.84,39.26,21.35,5.97,50.54,25.5,25.82,47.42-5.2,30.37-7.83,61.65-13.46,91.89-2.95,41.78-177.12,41.85-178.88-.96ZM329.47,167.03c2.96-.61,12.1,6.07,9.86-.02-.62-1.9-4.96-4.05-6.88-4.21-2.04-.17-2.19,2.87-2.98,4.23ZM338.02,171.92c-12.41-6.74-8.95-1.43-14.3,7.36,2.46-.65,4.54-2.31,6.93-3.14,3.14-1.29,8.37-.07,7.37-4.22ZM336.66,176.64c-.74-.7-8.33,2.01-9.58,2.65-4.86,2.47-2.81,2.11-.05,3.87,2.16,1.38,3.96,3.04,6.03,4.52.66-.16,3.29-9.52,3.6-11.04ZM301.65,267.84c9.74.86,32.63-28.19,35.38-37.79,16.11-41.64-28.77-65.14-59.68-38.12-45.89-33.8-77.52,29.86-29.16,65.81,1.92,1.67,15.73,12.88,16.8,12.98.91.09,3.06-1.04,3.56-1.92-68.44-30.38-43.78-107.76,11.16-72.55,28.9-23.98,67.5-4.03,53.46,34.26-5.24,16.28-21.47,25.96-31.53,37.32ZM299.63,265.34c10.63-11.34,25.31-19.83,31.02-35.42,13.61-38.59-23.79-53.89-51.35-30.22-21.62-21.41-56.89-6.17-48.98,26.01,4.55,19.65,24.42,31.02,38.8,42.53,4.8-1.94,8.36-1.54,13.33.09-4.88,3.5-5.72-3.88-17.5,5.76-12.49,8.57-9,19.81-9.34,31.93-.33,2.7-4.32,7.63.26,8.35,2.82.44,6.58-.23,8.57-2.39,6.35-6.89-1.15-15.45,1.6-22.4,6.64-10.97,21.03-21.03,24.34-1.59.87,3.01.18,7.16,3.96,8.5,5.01,1.77,5.75-1.44,5.88-5.83.1-3.4-2.44-9.26,3.54-8.39,4.05.59,2.84,7.06,6.38,8.98,5.13,3.61,12.25-1.54,10.3-7.43-.58-1.53-9.4-10.64-10.96-11.58-4.66-3.59-6.66,4.7-10.24,3.29-1.18-1.19,1.45-1.73,1.78-2.06.9-.88,1.75-2.66,3-3.47-3.02,1.34-4.22-2.47-6.49-2.62-5.93-.38-6.65,5.48-12.34,4.19-1.18-.26-3.11-1.85-.79-1.61,7.29.92,3.04-4.57,15.22-4.63ZM259.45,270.24c-.38.36-6.09,1.25-8.42,3.82-7.72,10.49-1.16,11.84,5.3,2.9.98-.76,7.45-4.28,7.42-5.04l-16.13-11.7c-5.72-2.63-32.59,14.81-20.6,19.12,8.15-3.12,4.98-12.77,20.67-10.53,4.43.44,3.68,1.26,8.68.51.56-.08,4.38-.31,3.08.92ZM353.45,328.8c-11.02-20.8-10.14-49.58-33.72-62.49-6.09-3.4-6.18-1.08-10.87,2.73,4.37,3.23,14.27,11.12,14.28,16.8,0,7.38-8.1,10.95-14.15,7.06-3.78-2.43-2.42-8.69-6.85-8.74.81,6.16,1.68,17.88-8.07,15.04-9.42-2.74-3.85-25.61-16.07-18.32-8.26,6.76-11.87,9.51-8.52,20.37.88,9.22-3.21,17.15-13.57,15.97-8.93-1.02-3.69-7.6-3.17-12.18-.08-7.17-1.05-13.91.96-20.88-12.84,4.54-9.24-6.75-3.36-12.48-17.99-4.85-12.58,6.82-22.79,9.61-1.94.11-4.63-1.14-5.01-3.15,1.23-9.68-5.2,1.16-7.67,3.38-10.01,12.13-16.07,25.84-18.23,41.51,2.35-1.13,5.36-.42,7.21-2.14,1.68-1.56,3.03-8.39,5.5-9.38,2.3,0-1.46,4.12-1.78,5.42-1.21,4.96-2.22,7.18-7.98,7.38-10.95,1.63-7.83,15.81,2.13,15.94,7.78.92,13.74.23,21.13,4.29,7.36,7.28,18.59,7.57,27.47,3.17,10.53-1.84,13.26,6.97,21.58,8.69,7.52.92,18.68-.27,26.33-.82,3.06-7.87,13.97-10,20.72-13.1,3.36-.99,7.65-.15,8.88-4.07,1.69-5.41-2.83-12.11-8.21-12.96-37.42-3.48-26.2,24.9-50.56,16.28-.1-.7,1.23-.87,1.66-.87,11.66,4.08,15.04-6.53,21.83-12.82,5.47-4.2,22.39-7.15,28.7-5.18,7.2,1.89,12.36,11.26,8.24,17.91,10.77.48,12.14-13.55,23.98-12ZM222.76,273.12v.48c.31-.16.31-.32,0-.48ZM198.54,303.36c-20.72,4.25-54.35,26.68-24.69,45.59,1.52.57.31-3.66.74-4.53.23-1.43,1.36-3.24,1.28-4.93-10.24-11.69.98-20.35,11.8-25.18,8.32-3.42,9.7-1.4,10.87-10.95ZM363.52,351.36c32.38-16.5,9.88-40.07-15.35-46.08-.3.29,2.09,7.11,2.52,7.56,8.52,3.93,24.26,10.45,17.88,22.69-3.97,4.28-1.88,4.8-2.27,10.21-.43,1.88-3.3,3.24-2.77,5.62ZM195.66,313.92c-6.32,1.79-20.93,8.15-21.6,15.6-.4,4.44,3.09,5.85,3.35,9.67.21,3.02-1.92,6.5-.61,9.66,1.06,2.56,9.6,2.58,10.24,8.02.56,4.72-1.67,11.39,3.19,14.57,5.86,3.83,5.15-3.6,6.15-7.12,2.15-7.49,5.15-4.18,10.32-5.51,11.09-7.98,12.64-6.3,25.71-4.15,11.2,1.2,22.46,2.15,33.75,1.98-12.72-8.47-10.6-7.7-23.79-3.41-6.84.52-15.41-.85-20.19-6.09-7.64-4.57-13.73-3.38-21.84-4.54-10.02-1.43-13.95-12.74-5.71-18.91l1.03-9.76ZM324.33,390.1c4.09,2.96,9.92,4.82,13.72.32,5.32-5.3,2.65-11.38,4.01-18.06,1.81-8.87,11.54-7.3,16.91-12.35,3.9-3.66,1.3-5.24,1.78-9.24,2.49-6.84,4.05-3.88,2.85-12.01.35-2.52,3.86-4.21,4.21-7.87.68-7.13-10.64-12.61-16.05-15.06-.58,1.88,3.11,11.19,5.02,11.78.55.19,3.16.68,3.7.68,1.01,0,2.24-1.29,2.56-.94,1.02,1.14-1.43,3.12-2.66,3.34-21.88-.54-14.93,10.77-32.11,12.98-8.52,1.09-8.79,1.24-16.55,4.56-4.01,1.03-10.29,3.07-10.47,8.05.51,2.83,9.03,6.22,11.56,5.52,5-4.54,10.89,3.77,11.39,8.51.44,3.85-1.43,17.87.14,19.79ZM197.1,372.48c-3.44,4.28-8.17,1.92-10.75-1.95s-.11-10.7-1.47-12.93c-.74-1.22-11.31-5.1-12.96-7.19-.96,1.38,11.58,86.57,11.37,87.98,1.54,3.5,22.49,12.07,23.88,10.89l-10.07-76.8ZM209.65,450.16c44.77,9.84,101.46,12.13,143.28-8.84,6.16,3.29,14.71-88.56,16.33-90.21-14.35,5.85,5.8,7.38-21.05,16.85-9.18,7.1,2.45,19.16-12.18,27.17-24.45,2.83-10.58-16.08-16-27-39.9,6.47-81.47,5.47-120.55-5.05l-.96,3.38,11.12,83.7ZM202.86,361.43c36.67,9.28,76.52,11.05,113.9,4.81,3-.64.45-2.37-.47-2.4-5.7,3.91-14.18-1.42-18.25-5.79-20.28,1.56-41.11,1.54-61.37-.46-5.22-.51-18.14-3.61-22.16-1.53-3.89,3.09-5.77,5.18-11.65,5.37ZM208.61,460.8c-.44-1.66-.32-6.97-1.43-7.92-.52-.44-10.87-3.47-12.93-4.33l-10.08-5.02c2.17,10.52,15.57,14.05,24.45,17.28ZM355.84,443.52c-42.17,21.39-100.24,19.94-145.54,10.07-.65-.02,1.01,7.24.76,8.12,32.19,9.06,126.68,15.31,144.78-18.19Z"/><path class="Bit_Cream-cls-3-1" d="M180.32,440.16c1.58,42.73,175.91,42.8,178.88.96,54.5,29-60.17,43.63-77.91,42.26-18.38,3.97-166.58-9.49-100.97-43.22Z"/><path class="Bit_Cream-cls-4-2" d="M376.01,218.86c.68.61,8.26-3.23,6.18,4.55-1.82,6.83-10.07,11.47-16.75,11.79,2.93-6.84,1.32-8.3-.02-15.14-.59-8.23,9.29-8.74,10.59-1.19Z"/><path class="Bit_Cream-cls-4-2" d="M176.96,256.32c-5.16.19-13.15-1.67-15.53-6.77-3.05-6.51,3.38-4.15,4.01-4.77.52-.52.37-5.77,4.57-5.77,5.78,0,3.94,8.09,4.27,11.07.29,2.67,2.27,3.84,2.69,6.23Z"/><path class="Bit_Cream-cls-4-2" d="M207.8,166.24c9.17-5.86,4.53,12.36,2.43,13.25-4.28-.15-11.14-7.91-7.36-12.19,3.05-2.36,3.76,2.16,4.93-1.06Z"/><path class="Bit_Cream-cls-5-3" d="M209.65,450.16l-11.12-83.7.96-3.38c39.07,10.52,80.65,11.52,120.55,5.05,5.41,10.89-8.44,29.84,16,27,14.6-7.95,3.01-20.01,12.18-27.17,26.87-9.48,6.68-10.98,21.05-16.85-1.66,1.99-10.13,93.23-16.33,90.21-41.86,20.97-98.45,18.67-143.28,8.84Z"/><path class="Bit_Cream-cls-4-2" d="M353.45,328.8c-11.86-1.54-13.18,12.47-23.98,12,4.12-6.65-1.04-16.01-8.24-17.91-6.31-1.97-23.24.98-28.7,5.18-6.77,6.28-10.2,16.91-21.83,12.82-.43,0-1.76.17-1.66.87,24.28,8.63,13.24-19.79,50.56-16.28,5.38.84,9.9,7.55,8.21,12.96-1.23,3.93-5.52,3.08-8.88,4.07-6.75,3.11-17.66,5.23-20.72,13.1-7.74.54-18.78,1.74-26.33.82-8.32-1.73-11.05-10.54-21.58-8.69-8.88,4.39-20.11,4.11-27.47-3.17-7.39-4.06-13.35-3.37-21.13-4.29-9.94-.13-13.09-14.32-2.12-15.94,5.65-.1,6.85-2.57,7.98-7.38.29-1.36,4.11-5.36,1.78-5.42-2.47.99-3.82,7.81-5.5,9.38-1.85,1.72-4.86,1.01-7.21,2.14,2.16-15.67,8.22-29.38,18.23-41.51,2.48-2.23,8.9-13.06,7.67-3.38.38,2.01,3.07,3.27,5.01,3.15,10.16-2.71,4.77-14.47,22.8-9.61-5.89,5.73-9.49,17.01,3.36,12.48-2,6.97-1.04,13.71-.95,20.88-.52,4.59-5.76,11.17,3.17,12.18,10.36,1.18,14.44-6.75,13.57-15.97-3.37-10.85.3-13.66,8.52-20.37,12.23-7.29,6.66,15.58,16.07,18.32,9.75,2.84,8.88-8.87,8.07-15.04,4.43.06,3.06,6.31,6.85,8.74,6.05,3.89,14.15.32,14.15-7.06,0-5.68-9.91-13.57-14.28-16.8,4.69-3.81,4.78-6.13,10.87-2.73,23.58,12.91,22.69,41.69,33.72,62.49Z"/><path class="Bit_Cream-cls-1-4" d="M299.63,265.34c-12.19.06-7.9,5.54-15.22,4.63-2.32-.24-.38,1.34.79,1.61,5.7,1.28,6.41-4.58,12.34-4.19,2.27.15,3.47,3.96,6.49,2.62-1.25.81-2.11,2.59-3,3.47-.33.32-2.97.86-1.78,2.06,3.57,1.42,5.6-6.88,10.24-3.28,1.57.94,10.38,10.05,10.96,11.58,1.93,5.9-5.17,11.04-10.3,7.43-3.54-1.93-2.33-8.4-6.38-8.98-5.98-.87-3.44,4.99-3.54,8.39-.13,4.39-.86,7.59-5.88,5.83-3.78-1.33-3.09-5.49-3.96-8.5-3.3-19.46-17.72-9.35-24.34,1.59-2.76,6.95,4.75,15.51-1.6,22.4-1.99,2.16-5.75,2.84-8.57,2.39-4.57-.72-.59-5.66-.26-8.35.35-12.11-3.16-23.36,9.34-31.93,11.84-9.66,12.58-2.24,17.5-5.76-4.97-1.65-8.55-2.02-13.33-.09-14.38-11.51-34.25-22.88-38.8-42.54-7.9-32.17,27.35-47.43,48.97-26.01,27.53-23.66,64.98-8.39,51.35,30.22-5.71,15.6-20.39,24.08-31.02,35.42ZM287.28,212.14c-.35-.35.54-3.88-.47-4.57-.27-.19-6.11-1.21-6.51-1.18-2.44.17.12,6.23-2.87,5.29-1.93-.61.55-5.86-.96-7.21-.75-.67-7.3-1.29-7.86.32-.38,1.1.22,5.65-.07,5.94-1.91-.36-6.85-1.14-7.58,1.29-.27.91-.22,9.78.12,10.26.87,1.25,5.49-.65,5.52,1.6-1.37,2.8.34,21.58-.45,22.37-.17.17-4.21-.29-4.73.55-.34.55.07,9.65.42,10.01.17.17,4.22-.28,4.73.55.57.93-.79,3.18.86,4.18,3.69.53,8.78,4,7.84-2.81h1.43c-.73,5.23,1.57,5.21,6.02,4.82s2.83-2.7,3.12-6.24c13.93-.43,20.78-11.94,10.54-22.82,7.73-7.47,1.21-21.87-9.1-22.34Z"/><path class="Bit_Cream-cls-1-4" d="M324.33,390.1c-1.57-1.92.3-15.94-.14-19.79-.49-4.75-6.39-13.04-11.39-8.51-2.53.7-11.05-2.69-11.56-5.52.2-4.99,6.45-7.01,10.47-8.05,7.76-3.32,8.02-3.47,16.55-4.56,17.13-2.18,10.31-13.54,32.11-12.98,1.23-.22,3.67-2.2,2.66-3.34-.32-.35-1.55.94-2.56.94-.53,0-3.15-.49-3.7-.68-1.81-.5-5.66-9.98-5.02-11.78,5.4,2.45,16.73,7.93,16.05,15.06-.35,3.66-3.85,5.35-4.2,7.87,1.19,8.11-.36,5.16-2.86,12.01-.48,4,2.12,5.57-1.78,9.24-5.37,5.05-15.1,3.48-16.91,12.35-1.36,6.68,1.31,12.77-4.01,18.06-3.78,4.48-9.65,2.66-13.72-.32ZM338.1,368.16c-9.13.14.46,23.71-11.5,15.36,2.1,4.65,5.97,5.57,8.24.33,1.55-3.57.66-7.91,1.45-11.51.31-1.4,2.15-2.46,1.82-4.18Z"/><path class="Bit_Cream-cls-5-3" d="M197.1,372.48l10.07,76.8c-1.39,1.18-22.34-7.39-23.88-10.89.2-1.43-12.32-86.61-11.37-87.98,1.64,2.09,12.21,5.97,12.96,7.19,1.36,2.23-1.19,8.95,1.47,12.93s7.31,6.24,10.75,1.95Z"/><path class="Bit_Cream-cls-4-2" d="M195.66,313.92l-1.03,9.76c-8.23,6.17-4.31,17.48,5.71,18.91,8.11,1.16,14.2-.03,21.84,4.54,4.77,5.23,13.37,6.62,20.19,6.09,13.13-4.31,11.2-5,23.79,3.41-11.29.18-22.55-.78-33.75-1.98-13.17-2.15-14.56-3.83-25.7,4.16-5.17,1.32-8.18-1.98-10.32,5.51-1.01,3.52-.29,10.95-6.15,7.12-4.86-3.18-2.63-9.84-3.19-14.57-.64-5.44-9.18-5.46-10.24-8.02-1.31-3.15.82-6.63.61-9.66-.26-3.82-3.75-5.24-3.35-9.67.67-7.45,15.29-13.81,21.6-15.6Z"/><path class="Bit_Cream-cls-2-5" d="M355.84,443.52c-18.13,33.48-112.41,27.27-144.78,18.19.25-.88-1.41-8.14-.76-8.12,45.3,9.87,103.38,11.32,145.54-10.07Z"/><path class="Bit_Cream-cls-1-4" d="M301.65,267.84c-.06-.06-.18-1.34.33-1.46,12.18-9.62,25.59-20.89,31.2-35.86,14.03-38.28-24.55-58.25-53.46-34.26-54.97-35.22-79.58,42.18-11.16,72.54-.51.88-2.65,2.01-3.56,1.92-1.07-.1-14.88-11.31-16.8-12.98-48.38-35.98-16.71-99.61,29.16-65.82,30.91-27.01,75.79-3.53,59.68,38.12-2.76,9.62-25.59,38.59-35.38,37.79Z"/><path class="Bit_Cream-cls-2-5" d="M202.86,361.43c5.98-.21,7.7-2.26,11.65-5.37,4.02-2.08,16.94,1.02,22.16,1.53,20.25,2,41.09,2.02,61.37.46,4.06,4.36,12.55,9.7,18.25,5.79.92.02,3.47,1.75.47,2.4-37.38,6.24-77.23,4.47-113.9-4.81Z"/><path class="Bit_Cream-cls-2-5" d="M198.54,303.36c-1.17,9.56-2.56,7.53-10.87,10.95-10.84,4.84-22.03,13.48-11.8,25.18.08,1.7-1.05,3.51-1.28,4.93-.44.93.8,5.03-.74,4.53-29.67-18.91,3.98-41.36,24.69-45.59Z"/><path class="Bit_Cream-cls-2-5" d="M363.52,351.36c-.53-2.38,2.34-3.74,2.77-5.62.39-5.44-1.7-5.91,2.27-10.2,6.38-12.24-9.36-18.77-17.88-22.69-.42-.45-2.82-7.27-2.52-7.56,25.27,6.02,47.7,29.6,15.35,46.08Z"/><path class="Bit_Cream-cls-1-4" d="M259.45,270.24c1.3-1.22-2.52-1-3.08-.92-4.99.75-4.25-.07-8.68-.51-15.71-2.23-12.5,7.41-20.66,10.53-11.99-4.31,14.86-21.74,20.6-19.12,0,0,16.13,11.7,16.13,11.7.03.76-6.44,4.28-7.42,5.04-1.96,1.51-5.29,7.73-8.42,5.55-1.73-1.21,2.05-7.26,3.12-8.45,2.33-2.58,8.03-3.46,8.42-3.82Z"/><path class="Bit_Cream-cls-2-5" d="M208.61,460.8c-8.88-3.22-22.28-6.76-24.45-17.28l10.08,5.02c2.07.86,12.41,3.89,12.93,4.33,1.12.95.99,6.26,1.43,7.92Z"/><path class="Bit_Cream-cls-5-3" d="M336.66,176.64c-.32,1.52-2.94,10.88-3.6,11.04-2.06-1.48-3.87-3.14-6.03-4.52-2.76-1.76-4.82-1.4.05-3.87,1.25-.64,8.84-3.35,9.58-2.65Z"/><path class="Bit_Cream-cls-5-3" d="M329.47,167.03c.79-1.36.94-4.4,2.98-4.23,1.91.16,6.26,2.31,6.88,4.21,2.25,6.09-6.9-.59-9.86.02Z"/><path class="Bit_Cream-cls-5-3" d="M338.02,171.92c1,4.15-4.24,2.93-7.37,4.22-2.39.83-4.47,2.49-6.92,3.14,5.35-8.82,1.9-14.09,14.3-7.36Z"/><path class="Bit_Cream-cls-4-2" d="M222.76,273.12c.31.16.31.32,0,.48v-.48Z"/><path class="Bit_Cream-cls-6-0" d="M287.28,212.14c10.32.46,16.83,14.87,9.1,22.34,10.24,10.88,3.4,22.39-10.54,22.82-.3,3.54,1.23,5.86-3.12,6.24s-6.74.4-6.02-4.82h-1.43c.94,6.78-4.11,3.36-7.84,2.81-1.65-1-.29-3.24-.86-4.18-.51-.83-4.56-.38-4.73-.55-.35-.36-.76-9.46-.42-10.01.52-.84,4.56-.38,4.73-.55.79-.79-.92-19.57.45-22.37-.03-2.25-4.65-.35-5.52-1.6-.33-.48-.39-9.35-.12-10.26.73-2.43,5.66-1.65,7.58-1.29.28-.28-.31-4.84.07-5.94.56-1.61,7.11-.98,7.86-.32,1.51,1.34-.98,6.6.96,7.21,2.99.94.43-5.12,2.87-5.29.4-.03,6.24,1,6.51,1.18,1.01.68.12,4.22.47,4.57ZM263.29,213.36c-.06,8.65-1.36,6.7,4.46,7.06,2.26.67.83,3.39.8,4.92-.15,7.19.17,14.41,0,21.61-.53,2.81-4.39,1.28-4.78,1.69-.93,5.95-1.23,6.13,4.78,5.29.79.55.31,5.51.52,5.73.13.14,3.2.44,3.81.5-.73-4.97,1.65-3.77,5.46-3.87,2.28,4.25-2,4.63,4.61,4.35-1.01-8.06,2.14-5.77,7.6-7.03,10.97-1.78,10.25-14.93,1.48-18.21-.54-2.39,2.14-2.16,3.33-3.38,5.73-7.27-1.46-17.96-10-17.96-.88-.89,2.23-6.22-4.34-4.78-.13,1.05.41,3.52-.45,4.11s-5.47.72-5.79-.99c-.6-3.21,1.85-6.47-2.66-6.5-2.85-.02-1.05,2.77-1.15,4.57-.3,5.41-6.95.48-7.7,2.89Z"/><path class="Bit_Cream-cls-6-0" d="M338.1,368.16c.33,1.71-1.51,2.78-1.82,4.18-.79,3.6.1,7.94-1.45,11.51-2.27,5.24-6.13,4.32-8.24-.33,11.97,8.34,2.36-15.2,11.5-15.36Z"/><path class="Bit_Cream-cls-1-4" d="M263.29,213.36c.75-2.41,7.4,2.52,7.7-2.89.1-1.8-1.71-4.59,1.15-4.57,4.51.03,2.06,3.3,2.66,6.5.32,1.71,4.95,1.57,5.79.99s.32-3.07.45-4.11c6.57-1.44,3.46,3.89,4.34,4.78,8.54,0,15.73,10.69,9.99,17.96-1.19,1.22-3.87.99-3.33,3.38,8.77,3.27,9.49,16.45-1.48,18.21-5.46,1.26-8.61-1.03-7.6,7.03-6.62.28-2.34-.11-4.61-4.35-3.81.1-6.19-1.1-5.46,3.87-.61-.06-3.67-.37-3.81-.5-.21-.21.26-5.18-.52-5.73-5.98.81-5.73.72-4.78-5.29.39-.41,4.26,1.12,4.78-1.69.16-7.2-.15-14.41,0-21.61.03-1.53,1.47-4.25-.8-4.92-.92-.27-4.46.13-4.46-.1,0-1.53-.32-5.94,0-6.96ZM274.8,223.44c-.44,1.53,0,7.9,0,10.08-.11,1.34,9.22.51,9.83.72,2.99,0,4.43-4.77,3.96-7.33-1.17-6.44-13-6.22-13.79-3.47ZM275.28,241.68c-.89,12.29.31,10.23,11.13,8.26,5.79-1.75,3.39-9.81-1.41-10.79-2.45-.5-9.31-.45-9.72,2.53Z"/><path class="Bit_Cream-cls-6-0" d="M274.8,223.44c.79-2.75,12.62-2.97,13.79,3.47.47,2.56-.97,7.33-3.96,7.33-.64-.22-9.91.63-9.83-.72,0-2.18-.44-8.55,0-10.08ZM277.67,231.36h6.95c2.36,0,2.99-6.69-2.85-7.22-1.47-.13-3.09.14-4.58.02l.48,7.2Z"/><path class="Bit_Cream-cls-6-0" d="M275.28,241.68c.41-2.98,7.27-3.03,9.72-2.53,4.8.98,7.2,9.04,1.41,10.79-10.84,1.98-12.02,4.01-11.13-8.26ZM277.2,248.64c3.35-.9,12.3.84,9.71-5.16-1.04-2.4-6.88-2.71-8.75-1.8-1.72.84-.69,5.26-.95,6.96Z"/><path class="Bit_Cream-cls-1-4" d="M277.67,231.36l-.48-7.2c1.49.12,3.11-.16,4.58-.02,5.84.54,5.21,7.22,2.85,7.22h-6.95Z"/><path class="Bit_Cream-cls-1-4" d="M277.2,248.64c.26-1.71-.77-6.12.95-6.96,1.87-.91,7.71-.6,8.75,1.8,2.6,6.01-6.36,4.26-9.71,5.16Z"/>
    <path d="M151.68,610.15c1.28-3.61,1.98-7.11,2.26-10.48.67-.17,1.24-.3,1.76-.32,1.58-.07,2.15.72,2.19,1.73.14,3.02-3.02,9.65-4.65,9.73-.77.04-1.21-.19-1.57-.65ZM158.49,609.83c1.28-3.62,1.98-7.11,2.26-10.48.67-.17,1.24-.3,1.76-.32,1.58-.07,2.15.72,2.19,1.73.14,3.02-3.02,9.65-4.65,9.73-.77.04-1.21-.19-1.57-.65Z"/><path d="M160.87,629.43c-.22-4.84,7.13-22.72,9.6-29.56,2.13-.72,6.71-1.41,11.17-1.62,3.17-.15,4.4.57,4.48,2.25.04.82-.3,1.94-.86,3.26-2.01.09-7.09.37-11.01.99-1.1,3.27-2.28,6.88-3.37,10.44,2.67-.46,5.88-.75,8.03-.85,2.45-.11,2.66,1.51.81,5.01-2.4.11-6.52.39-10.43,1.01-1.7,5.84-2.92,10.8-2.83,12.82-4.27.2-5.48-1.05-5.6-3.73Z"/><path d="M180.1,628.45c-.23-5.04,5.08-15.95,5.52-19.04,3.4-.16,4.84.83,4.9,2.08.08,1.73-4.26,11.83-4.11,15.13.02.34.17.62.56.6,2.78-.13,7.71-5.93,10.6-18.36,2.49-.11,4.5.75,4.57,2.29.07,1.49-4.1,12.3-4,14.5.02.53.27.76.66.74,1.3-.06,4.1-2.74,6.64-8.19l.57-1.18c1.88.01,2.43.66,2.08,1.44l-.56,1.37c-2.53,5.59-7.77,11.79-12.14,11.99-1.97.09-3.42-1.29-3.52-3.4-.04-.86.24-2.08.66-3.39-2.35,4.29-5.57,7.46-8.64,7.6-2.25.1-3.67-1.51-3.8-4.2Z"/><path d="M204.61,625.41c-.39-8.54,8.12-31.42,14.17-31.69,2.4-.11,3.49,1.76,3.6,4.21.21,4.56-3.54,15.01-11.58,22.11-.22,1.55-.3,2.99-.24,4.19.06,1.29.33,1.86,1,1.83,1.77-.08,6.64-4,8.69-8.57l.57-1.23c1.15-.05,2.08.34,2.13,1.39l-.65,1.47c-2.22,4.95-8.81,12.13-13.56,12.35-2.35.11-3.92-1.6-4.12-6.06ZM219.33,599.5c-.03-.72-.24-.95-.52-.94-1.49.07-5.21,8.98-7.1,17,5.02-5.8,7.76-13.14,7.63-16.06Z"/><path d="M219.42,624.73c-.39-8.54,8.12-31.42,14.17-31.69,2.4-.11,3.49,1.76,3.6,4.21.21,4.56-3.54,15.01-11.58,22.11-.22,1.55-.3,2.99-.24,4.19.06,1.29.33,1.86,1,1.83,1.77-.08,6.64-4,8.69-8.57l.57-1.23c1.15-.05,2.08.34,2.13,1.39l-.65,1.47c-2.22,4.95-8.81,12.13-13.56,12.35-2.35.11-3.92-1.6-4.12-6.06ZM234.14,598.82c-.03-.72-.24-.95-.52-.94-1.49.07-5.21,8.98-7.1,17,5.02-5.8,7.76-13.14,7.63-16.06Z"/><path d="M230.68,633.44c-.07-1.63.53-2.04,2.35-2.22,4.12-.38,7.46-.82,10.26-1.48.81-2.25,1.51-4.83,2.21-7.36l-.15-.09c-3.03,4.13-5.73,6.08-8.41,6.2-2.21.1-3.76-1.37-3.9-4.29-.2-4.32,4.71-13.53,5.5-17.41,3.61.08,4.71,1.03,4.77,2.38.08,1.82-4.05,10.28-3.91,13.25.02.53.28.9.86.87,2.54-.12,7.19-5.66,9.89-16.89,2.79.02,4.41.81,4.48,2.29.09,1.97-3.76,13.39-5.8,19.25,2.49-1.17,4.34-2.75,5.84-4.78.93.44,1.34.9,1.37,1.62.09,1.97-2.61,4.83-8.62,6.83-2.43,5.73-5.93,10.12-10.39,10.33-3.5.16-6.12-3.47-6.35-8.5ZM237.06,637.42c2.11-.1,3.62-1.85,4.89-4.4-1.96.33-4.15.62-6.55.78-.81.08-.91.14-.89.47.07,1.49.92,3.22,2.55,3.15Z"/><path d="M266.65,624.72c-.19-4.17,3.52-13.42,5.65-19.43,2.3-.11,4.46.95,4.54,2.63.07,1.58-4.39,11.16-4.24,14.37.03.58.18.81.52.79,1.68-.08,4.43-2.89,6.92-8.29l.52-1.18c1.2-.06,2.09.48,2.13,1.44l-.61,1.37c-2.13,4.81-7.23,12.01-11.79,12.22-2.3.11-3.54-1.76-3.64-3.92ZM273.43,599.57c-.11-2.49,1.2-5.34,3.45-5.44,1.92-.09,3.13,1.11,3.19,2.54.11,2.4-1.62,5.55-3.78,5.65-1.87.09-2.79-1.03-2.87-2.75Z"/><path d="M277.04,624.88c-.14-3.07,5.06-14.36,6.29-20.04,2.75.21,4.42.95,4.5,2.77.06,1.34-1.01,4.08-2.5,8.43,3.13-6.15,7.63-11.83,11.56-12.01,2.01-.09,3.33,1.29,3.41,3.21.16,3.5-4.59,11.07-4.46,13.8.02.38.22.52.55.5,1.49-.07,2.99-1.96,4.21-4.57,1.2-.05,1.75.45,1.79,1.26.13,2.78-4.84,8.68-9.2,8.88-2.25.1-3.54-1.76-3.63-3.68-.15-3.17,4.44-11.21,4.38-12.55-.02-.38-.22-.57-.55-.55-1.53.07-4.37,2.17-7.95,9.01-1.31,2.8-2.31,6.16-2.53,8.72-3.98.18-5.76-.89-5.86-3.19Z"/><path d="M308.95,635.52c-.16-3.6,8.37-27.15,9.09-32.33,3.1.43,4.51.85,4.59,2.67.02.53-.68,3.06-1.55,5.98h.1c3.34-6.84,6.31-9.23,8.94-9.35,2.21-.1,3.49,1.67,3.64,5.02.24,5.32-3.17,11.63-7.15,13.97v.14c3.83-.42,7.72-4.77,9.81-9.48l.57-1.18c1.2-.05,2.05.63,2.08,1.44l-.56,1.37c-3.22,7.26-8.24,12.1-14.14,12.37-2.69.12-4.84-.69-6.51-2.54-1.56,5.74-2.89,11.33-3.01,14.07-.95.24-1.76.42-2.57.46-2.25.1-3.26-.81-3.34-2.63ZM327.64,610.25c-.05-1.05-.36-1.62-1.03-1.59-1.58.07-5.37,3.32-7.7,11.26.47.89,1.23,1.58,2.23,1.53,3.98-.18,6.69-7.23,6.5-11.21Z"/><path d="M335.11,619.24c-.29-6.43,4.53-15.54,9.18-15.75,1.15-.05,2.28.38,2.82,1.7.87-2.06,2.24-3.51,3.82-3.59,1.73-.08,2.94,1.31,3.07,3.99.13,2.73-.72,6.28-2.25,9.57l.34.03c2.06-.09,3.42-1.84,4.38-3.95l.57-1.18c1.06-.05,2.04.44,2.09,1.49l-.56,1.32c-1.31,2.85-3.63,5.64-6.99,5.8-.58.03-1.16-.04-1.64-.17-2.42,3.86-5.74,6.85-9.34,7.01-3.16.15-5.3-2.3-5.48-6.28ZM342.88,619.89c1.58-.07,3.09-1.68,4.25-3.85-.74-1.36-1.06-3.12-1.13-4.71-.08-1.73.18-3.47.64-4.98-3.24,1.69-5.59,7.03-5.4,11.06.08,1.68.55,2.52,1.65,2.47Z"/><path d="M353.02,617.79c-.01-1.35.44-1.99,1.2-2.03.96-.04,3.4.81,6.48.9-.36-1.47-.97-3.32-1.4-5.41l-.13.29-.66,1.38c-1.1.05-2.01-.77-2.05-1.69l.52-1.18,1.78-4.07c.33-3.38,2.45-6.21,5.33-6.35,1.73-.08,2.86.64,3.31,1.87-1.81.28-2.96,2.44-2.88,4.36.12,2.59,1.67,5.98,2.11,9.42,1.78-1.09,3.24-2.7,4.16-4.71l.61-1.28c1.1-.05,2.05.72,2.04,1.54l-.56,1.37c-1.44,3.24-3.75,5.12-6.21,6.1-.71,3.49-4.04,6.29-7.44,6.44-4.22.19-6.28-2.88-6.23-6.97ZM358.2,621.78c1.2-.05,2.37-.78,2.63-2.47-2.93-.01-4.79-.79-5.08-.78-.1,0-.19.1-.18.25-.02,1.59.91,3.08,2.64,3Z"/><path d="M368.79,620.05c-.19-4.17,3.52-13.42,5.65-19.43,2.3-.11,4.46.95,4.54,2.63.07,1.58-4.39,11.16-4.24,14.37.03.58.18.81.52.79,1.68-.08,4.43-2.89,6.92-8.29l.52-1.18c1.2-.05,2.09.48,2.13,1.44l-.61,1.38c-2.13,4.81-7.24,12.01-11.79,12.22-2.3.11-3.54-1.76-3.64-3.92ZM375.56,594.89c-.11-2.49,1.2-5.34,3.45-5.45,1.92-.09,3.13,1.11,3.19,2.54.11,2.4-1.62,5.55-3.78,5.65-1.87.09-2.79-1.03-2.87-2.75Z"/><path d="M380.63,618.45c-.16-3.55,2.18-10.1,4.4-16.25l-1.53.07c-1.77.08-2.65-1.22-2.88-3.09l5.61-.26c1.28-3.52,2.34-6.64,2.68-8.72,2.83-.03,5.28.82,5.34,2.26.03.72-.82,3.11-1.93,6.19l1.63-.08c2.3-.11,2.63.84,3.22,3.07l-6.04.28c-2.1,5.67-4.43,12.31-4.3,15.14.02.53.28.8.85.78,1.92-.09,5.74-2.76,8.26-8.4l.57-1.18c1.25-.06,2.04.53,2.08,1.44l-.56,1.37c-2.92,6.52-8.86,12.13-13.13,12.33-2.21.1-4.11-1.64-4.26-4.95Z"/><path d="M393.91,618.9c-.19-4.17,3.52-13.42,5.65-19.43,2.3-.11,4.46.95,4.54,2.63.07,1.58-4.39,11.16-4.24,14.37.03.58.18.81.52.79,1.68-.08,4.43-2.89,6.92-8.29l.52-1.18c1.2-.05,2.09.48,2.13,1.44l-.61,1.37c-2.13,4.81-7.24,12.01-11.79,12.22-2.3.11-3.54-1.76-3.64-3.92ZM400.69,593.74c-.11-2.49,1.2-5.34,3.45-5.44,1.92-.09,3.13,1.11,3.19,2.54.11,2.4-1.62,5.55-3.78,5.65-1.87.08-2.79-1.03-2.87-2.75Z"/><path d="M405.98,615.99c-.29-6.43,4.53-15.54,9.18-15.75,1.15-.05,2.28.38,2.82,1.7.87-2.06,2.24-3.51,3.82-3.59,1.73-.08,2.94,1.31,3.07,3.99.13,2.73-.72,6.28-2.25,9.57l.34.03c2.06-.09,3.42-1.84,4.38-3.95l.57-1.18c1.06-.05,2.04.43,2.09,1.49l-.56,1.33c-1.31,2.85-3.63,5.64-6.99,5.8-.58.03-1.16-.04-1.64-.16-2.42,3.86-5.74,6.85-9.34,7.01-3.16.14-5.3-2.3-5.48-6.28ZM413.75,616.64c1.58-.07,3.09-1.68,4.24-3.85-.73-1.36-1.06-3.12-1.13-4.71-.08-1.73.18-3.47.64-4.98-3.24,1.69-5.59,7.03-5.4,11.06.08,1.68.55,2.52,1.65,2.47Z"/><path d="M424.34,618.13c-.14-3.07,5.06-14.36,6.29-20.04,2.75.21,4.42.95,4.5,2.77.06,1.34-1.01,4.08-2.5,8.43,3.13-6.15,7.63-11.83,11.56-12.01,2.01-.09,3.33,1.29,3.41,3.21.16,3.5-4.59,11.07-4.46,13.8.02.38.22.52.55.5,1.49-.07,2.99-1.96,4.21-4.57,1.2-.05,1.75.45,1.79,1.26.13,2.78-4.84,8.68-9.2,8.88-2.25.1-3.54-1.76-3.63-3.68-.15-3.17,4.44-11.21,4.37-12.55-.02-.38-.22-.57-.55-.55-1.53.07-4.37,2.17-7.95,9.01-1.31,2.8-2.31,6.16-2.53,8.72-3.98.18-5.76-.89-5.86-3.19Z"/><path d="M148.53,677.83c-.29-6.43,4.53-15.54,9.18-15.75,1.15-.05,2.28.38,2.82,1.7.87-2.06,2.24-3.51,3.82-3.59,1.73-.08,2.94,1.31,3.07,3.99.12,2.73-.72,6.28-2.25,9.57l.34.03c2.06-.09,3.42-1.84,4.38-3.95l.57-1.18c1.06-.05,2.04.43,2.09,1.49l-.56,1.32c-1.31,2.85-3.63,5.64-6.99,5.8-.58.03-1.16-.04-1.64-.16-2.42,3.86-5.74,6.85-9.34,7.01-3.16.14-5.3-2.3-5.48-6.28ZM156.3,678.49c1.58-.07,3.09-1.68,4.24-3.85-.73-1.36-1.06-3.12-1.13-4.71-.08-1.73.18-3.47.64-4.98-3.24,1.69-5.59,7.03-5.4,11.06.08,1.68.55,2.52,1.65,2.47Z"/><path d="M166.89,679.97c-.14-3.07,5.06-14.36,6.29-20.04,2.75.21,4.42.95,4.5,2.77.06,1.34-1.01,4.08-2.5,8.43,3.13-6.15,7.63-11.83,11.56-12.01,2.01-.09,3.33,1.29,3.41,3.21.16,3.5-4.59,11.07-4.46,13.8.02.38.22.52.55.5,1.49-.07,2.99-1.96,4.21-4.57,1.2-.05,1.75.45,1.79,1.26.13,2.78-4.84,8.68-9.2,8.88-2.25.1-3.54-1.76-3.63-3.68-.15-3.17,4.44-11.21,4.37-12.55-.02-.38-.22-.57-.55-.55-1.53.07-4.37,2.17-7.95,9.01-1.31,2.8-2.31,6.16-2.53,8.72-3.98.18-5.76-.89-5.86-3.19Z"/><path d="M206.35,686.43c-.07-1.44,1.25-4.09,2.64-6.42-3.57-.27-5.75-1.8-5.85-4.01-.06-1.29.31-2.66.8-3.5.91.97,4.28,2.11,7.68,1.96,3.21-.15,6.13-1.39,6.05-3.21-.04-.91-1.27-1.53-3.42-2.34-4.74-1.61-7.69-3.16-7.87-7.09-.25-5.47,5.73-14.39,15.13-14.82h.05c.89-2.5,1.91-5.57,2.52-7.95,2.35-.11,3.92.59,3.98,1.93.07,1.44-1.72,4.4-3.35,6.69,2.01.96,3.73,2.76,3.83,4.87.15,3.31-3.52,8.04-6.21,8.17-1.39.06-2.27-.23-3.02-.82,2.66-2.86,3.98-6.53,3.9-8.2-.03-.58-.23-.85-.85-.83-3.88.18-9.91,5.98-9.71,10.44.08,1.77,1.66,2.66,3.96,3.62,3.87,1.65,5.94,2.8,6.07,5.63.19,4.08-3.61,8.29-9.76,9.29-.99,2.45-2.13,6.01-2.77,8.78-2.21.1-3.73-.7-3.8-2.18Z"/><path d="M232.26,677.27c-.08-1.82,1.81-7.63,2.74-10.55-1.01-6.34-2.65-15.83-3.65-19.92,1.07-.67,2.26-1.02,3.31-1.07,1.92-.09,2.77.69,3,2.65.53,4.16,1.62,9.25,2.15,13.45,3.56-5.21,7.75-11.36,10.05-16.75,2.73-.12,4.58,1.28,4.64,2.77.1,2.16-6.65,11.12-13.83,20.05-.6,2.62-2.79,10.51-3.13,12.45-3.02.14-5.13-.77-5.28-3.07Z"/><path d="M252.52,669.66c-.46-10.12,8.21-25.41,17.65-25.85,4.99-.23,8.94,3.19,9.2,8.76.42,9.21-6.87,26.31-17.47,26.8-4.6.21-9.13-4.2-9.38-9.71ZM273.75,651.58c-.09-1.87-.82-3.18-2.45-3.11-5.47.25-12.83,12.5-12.39,22.1.09,1.87.96,3.13,2.93,3.04,6.62-.3,12.24-14.88,11.92-22.03Z"/><path d="M295.27,674.57c-.04-.96.96-4.13,1.35-5.2-3.25,4.57-8.07,8.49-11.81,8.66-2.93.13-4.87-1.36-5.01-4.38-.29-6.33,7.83-24.19,9.77-30.1,2.93-.13,5.2.24,5.27,1.83.1,2.21-7.93,19.97-7.67,25.48.03.62.24,1,.81.97,2.64-.12,7.45-4.09,9.83-8.91,2.31-5.06,5.28-12.74,8.14-20.6,2.83-.13,4.69.6,4.77,2.47.14,3.12-8.33,21.57-9.75,32.74-3.16.24-5.59-.32-5.71-2.96Z"/><path d="M306.7,674.43c-.11-2.49,1.2-5.34,3.45-5.44,1.92-.09,3.13,1.11,3.19,2.55.11,2.4-1.62,5.55-3.78,5.65-1.87.09-2.79-1.03-2.87-2.75Z"/><path d="M319.92,652.49c1.28-3.62,1.98-7.11,2.26-10.48.66-.17,1.24-.3,1.76-.32,1.58-.07,2.15.72,2.19,1.73.14,3.02-3.02,9.65-4.65,9.73-.77.04-1.21-.19-1.57-.65ZM326.73,652.18c1.28-3.61,1.98-7.11,2.26-10.48.67-.17,1.24-.3,1.76-.32,1.58-.07,2.15.72,2.19,1.73.14,3.02-3.02,9.65-4.65,9.73-.77.04-1.21-.18-1.57-.65Z"/>
  </svg>