<svg xmlns="http://www.w3.org/2000/svg" viewBox="0 0 540 756">
    <defs><style>.Cyan-cls-1-2{fill:#d7f7f7;}.Cyan-cls-2-3{stroke:#c7b299;stroke-miterlimit:10;stroke-width:4px;}.Cyan-cls-2-3,.Cyan-cls-3-6{fill:#fff;}.Cyan-cls-4-5{mix-blend-mode:soft-light;}.Cyan-cls-5-0{isolation:isolate;}.Cyan-cls-6-4{fill:#625bbf;}.Cyan-cls-7-1{fill:#f7f7f7;}</style></defs><g class="Cyan-cls-5-0"><g id="Background"><rect class="Cyan-cls-7-1" x=".15" y=".15" width="539.08" height="757.15"/><rect class="Cyan-cls-1-2" x=".15" y=".15" width="539.69" height="573.86"/><path class="Cyan-cls-2-3" d="M.15.15v757.14h539.08V.15H.15ZM504.23,722.29H35.15V35.15h469.08v687.14Z"/><circle class="Cyan-cls-6-4" cx="108.27" cy="575.71" r="45.86"/><g class="Cyan-cls-4-5"><path class="Cyan-cls-3-6" d="M107.66,565.07c.96,0,1.46-.32,1.6-.49-.19-.18-.95-.59-2.81-.59-.45,0-.92.03-1.39.09.34.55,1.06.99,2.6.99Z"/><path class="Cyan-cls-3-6" d="M98.82,584.43c2.88-1.06,5.61-3.44,7.79-6.88,1.02-1.8,1.63-3.49,1.74-4.81-3.84,2.87-7.41,6.9-9.53,11.7Z"/><path class="Cyan-cls-3-6" d="M107.37,570.37c-.28-.12-.62-.18-1.02-.18-2.51,0-4.48,1.71-5.69,3.14-2.02,2.39-3.21,5.58-3.2,7.32,2.55-4.25,6.14-7.75,9.91-10.29Z"/><path class="Cyan-cls-3-6" d="M97.5,564.22c.45-1.31.68-2.48.68-3.5,0-.86-.17-2.02-.98-2.64-.42-.31-.64-.75-.64-1.29,0-.83.63-1.45,1.45-1.45.38,0,.74.13,1.11.4,1.21.85,1.86,2.33,1.86,4.28,0,.85-.12,1.78-.36,2.76.29-.11.58-.2.87-.29-.02-.22-.03-.45-.03-.7,0-.99.21-2.06.62-3.17.22-.6.47-1.14.76-1.67-.14-.13-.28-.25-.41-.38-1.41-1.32-2.63-2.46-6.38-2.46-9.74,0-18.09,9.25-18.09,16.83,0,3.64,1.87,5.26,6.07,5.26,1.53,0,2.63-.35,4.09-1.04.17-.47.39-.98.66-1.56,1.9-3.91,4.99-7.21,8.73-9.36Z"/><path class="Cyan-cls-3-6" d="M116.1,554.38c.12-.38.2-.73.2-.94,0-.84-.68-1.27-2.03-1.27-1.81,0-5.27,1.48-7.49,4.63.99.52,2.31.94,4.31.94,2.84-.14,4.59-2.13,5.01-3.36Z"/><path class="Cyan-cls-3-6" d="M125.59,577.3c.55-1.47.48-2.17.36-2.34-.02-.03-.11-.05-.23-.05-1.51,0-5.62,3.66-7.8,9.64-.53,1.5-.71,2.87-.53,3.84,3.85-3.4,6.94-7.56,8.19-11.08v-.02Z"/><path class="Cyan-cls-3-6" d="M130.01,568.55c-5.78,0-15.3,9.21-19.59,18.94-1.05,2.44-1.72,4.71-1.95,6.66,2.25-.92,4.58-2.3,6.87-4.06-.77-1.56-.71-3.75.19-6.18,2.23-6.23,6.89-11.31,10.38-11.31,1.18,0,1.81.55,2.13,1.02.67.97.64,2.44-.08,4.38-1.4,3.86-4.69,8.29-8.93,12.04.16.02.33.04.52.04,2.85-.08,8.5-4.26,12.05-13.3,1.33-3.4,1.62-6.06.78-7.29-.43-.63-1.21-.94-2.37-.94Z"/><path class="Cyan-cls-3-6" d="M108.27,538.79c-20.39,0-36.92,16.53-36.92,36.92s16.53,36.92,36.92,36.92,36.92-16.53,36.92-36.92-16.53-36.92-36.92-36.92ZM119.43,592.39h0c-.99,0-1.82-.2-2.52-.6-2.77,2.16-5.65,3.83-8.43,4.88.31,3.08,2.18,4.83,5.22,4.83,5.69,0,12.19-4.62,14.69-8.94.31-.52.81-.8,1.37-.8h.56l.36.5c.33.54.07,1.06-.12,1.45-2.81,4.93-10.11,10.2-17.06,10.2-4.24,0-7.28-2.4-8.18-6.33-1.15.25-2.3.37-3.44.37-3.61,0-5.43-1.56-6.33-2.86-1.28-1.87-1.59-4.62-.93-7.64-4.52-.24-7.42-3.18-7.42-7.64,0-.62.06-1.26.17-1.94-1,.35-2.14.61-3.46.61-5.64,0-8.88-2.92-8.88-8.02,0-8.41,9.74-18.67,21.1-18.67,4.31,0,6.35,1.67,8.13,3.16,2.84-3.34,7.11-5.08,10.1-5.08,3.68,0,4.99,1.87,4.99,3.63,0,.56-.08,1.02-.27,1.51-.6,1.68-3.06,4.93-8.07,5.09h0c-2.13,0-3.87-.38-5.4-1.18-.06.13-.11.27-.17.4-.35.93-.57,1.76-.66,2.46.62-.07,1.2-.1,1.75-.1,3.79,0,5.14,1.48,5.14,2.87s-1.42,2.82-4.13,2.82c-2.44,0-4.32-.94-5.32-2.6-.92.33-1.85.76-2.78,1.29-1.69,3.83-4.63,7.42-7.95,9.7-.61,1.62-.93,3.17-.93,4.5,0,3.06,1.69,4.76,4.75,4.8.02-.06.04-.12.06-.19.26-.69.56-1.36.88-2.02-.09.02-.19.03-.29.03-.63,0-1.16-.43-1.32-1.06-.06-.23-.13-.57-.13-.95,0-3.87,5.03-12.97,11.91-12.97,1.33,0,2.43.37,3.28,1.03,2.08-1.18,4.16-2.07,6.07-2.63.6-.17,1.08-.09,1.41.23l.42.41-.14.64c-.13.47-.56.86-1.11.99-1.66.47-3.44,1.26-5.22,2.3.22.61.34,1.3.34,2.06,0,1.86-.7,4.02-1.97,6.08-2.91,4.4-7.25,7.37-11.73,8.21-.86,2.93-.82,5.27.14,6.66.77,1.1,2.18,1.66,4.21,1.66.93,0,1.9-.11,2.95-.34-.04-2.48.63-5.33,1.99-8.5,4.32-9.88,14.62-20.45,23.09-20.45,2.23,0,3.86.72,4.83,2.14,1.72,2.51.81,6.34-.26,9.12-3.58,9.18-10.59,14.77-15.3,14.88Z"/></g></g></g>
    <defs><style>.Bleeding_Heart-cls-1-5{fill:#fd2f4c;}.Bleeding_Heart-cls-2-13{fill:#ecb2dd;}.Bleeding_Heart-cls-3-0{opacity:.3;}.Bleeding_Heart-cls-4-11{fill:#a6a6a6;}.Bleeding_Heart-cls-5-9{fill:#fb2f4b;}.Bleeding_Heart-cls-6-2{fill:#1b1511;}.Bleeding_Heart-cls-7-12{fill:#180b0b;}.Bleeding_Heart-cls-8-15{fill:#f7c352;}.Bleeding_Heart-cls-9-4{fill:#e5c8ac;}.Bleeding_Heart-cls-1-50{fill:#fdc753;}.Bleeding_Heart-cls-1-51{fill:#6f4022;}.Bleeding_Heart-Bleeding_Heart-cls-1-52-1{fill:#130b0b;}.Bleeding_Heart-cls-1-53{fill:#f6a922;}.Bleeding_Heart-Bleeding_Heart-cls-1-54-3{fill:#a90001;}.Bleeding_Heart-cls-1-55{fill:#e2c6aa;}.Bleeding_Heart-cls-1-56{fill:#fd2f4b;}</style></defs><path class="Bleeding_Heart-cls-3-0" d="M259.1,447.5c12.16-2.28,99.88,3.96,70.99,27.31-23.72,14.79-98.91,14.77-122.7.11-26.29-20.24,39.91-27.68,51.7-27.42Z"/><path class="Bleeding_Heart-Bleeding_Heart-cls-1-52-1" d="M258.72,365.76l-20.41-13.43c-3.72,8.2-9.53,1.05-12.23.48,9.41,19.42-10,31.44-15.21,9.21,0,0-1.58-10.17-1.58-10.17-.83,8.84-22.62,36.89-25.87,16.5-.96-11.15,7.61-18.98,13.86-26.1-4.03.9-19.96,8.13-22.92,5.16-2.83-7.49,11.56-14.81,17.64-16.21-23.78-9.01-17.54-29.76-.71-23.04-8.07-16.21-24.9-36.78-26.99-57.97-4.52-28.17,5.17-65.9,36.33-73.78,27.8-7.29,55.31,8.01,69.37,31.45,53.39-74.29,134.08-13,99.61,64.56,32.45-19.44,38.07,8.81,13.08,26.98-4.61,3.22,15.67-1.85,17.39-1.78,62.26-9.19,26.66,52.79-19.44,26.4,47.84,38.28,5.49,96.18-22.08,24.48-.3,12.11.04,26.68-5.06,37.9-3.28,7.22-10.1,10.59-17.19,5.7-12.09-8.34-5.67-31.93-2.24-43.6-8.53,7.87-22.89,31.94-36.16,25.36-5.94-3.67-4.58-12.68-1.76-17.68h-.48c-36.36,18.28-9.85,34.11-16.61,60.43-4.53,9.46-15.36,8.1-18.81-1.74-5.62-16.02,8.76-28.92,2.29-43.81-.51-.68-.29-.94.48-.48.39-.19.76-.17,1.09.08,1.98,4.76,3.97,12.41,6.6.23-3.72-.29-7.09-1.83-10.09-4.63-.73.1-1.37-.06-1.92-.48Z"/><path class="Bleeding_Heart-cls-6-2" d="M258.72,365.76c2.5-1.4,1.76.34,1.92.48,1.86.77,3.75,3.16,1.92,4.8-.35-.67-3.49-3.67-3.84-5.28Z"/><path class="Bleeding_Heart-Bleeding_Heart-cls-1-54-3" d="M343.68,310.57c-17.32,24.62-46.52,44.77-73.43,57.87-1.31.27-9.96-4.45-11.85-5.48-150.69-83.64-92.84-246.9,2.97-164.25,9.36,10.76,8.33,14.57,12.1,27.26,12.98,34.71,35.34,68.98,70.21,84.6Z"/><path class="Bleeding_Heart-Bleeding_Heart-cls-1-54-3" d="M286.56,192c51.49-43.81,103.41,8.93,86.39,66.24-32.42-15.34-66.93-35.22-86.39-66.24Z"/><path class="Bleeding_Heart-cls-9-4" d="M286.56,192c18.44,32.48,52.2,52.78,85.22,68.15-.45,8.59-11.82,28.03-16.41,34.02-35.21-15.49-75.62-43.91-83.71-83.71,2.27-6.35,9.61-14.15,14.89-18.46Z"/><path class="Bleeding_Heart-cls-1-5" d="M358.08,341.29c8.75-2.26,13.97-10.3,13.44-19.21,55.62,31.6,16.06,99.67-13.44,19.21Z"/><path class="Bleeding_Heart-cls-1-5" d="M368.16,306.72c14.08-2.64,53.77-16.07,61.95-.27,4.03,11.5-13.46,20.7-22.83,21.38-12.99.95-22.78-8.14-35.3-9.32l-3.81-11.79Z"/><path class="Bleeding_Heart-cls-1-56" d="M356.16,341.76c.38,13.75,2.05,38.19-8.19,48.69-6.49,4.4-13.33-1.27-15.35-7.62-2.8-12.07.96-32.92,7.51-42.95,4.95,2.45,10.66,3.04,16.03,1.88Z"/><path class="Bleeding_Heart-cls-1-50" d="M354.73,298.08c14.71,5.39,21.59,29.83,7.53,39.45-11.09,6.74-25.92,2.35-31.08-9.43,8.29-9.54,17.6-18.75,23.55-30.02Z"/><path class="Bleeding_Heart-cls-1-55" d="M280.8,237.6c17.84,26.15,44.24,46.48,73.44,58.57,0,0-8.16,12.24-8.16,12.24-29.98-9.9-54.68-44.39-65.28-70.81Z"/><path class="Bleeding_Heart-cls-1-56" d="M366.32,305.21c-8.58-12.3-14.08-3.49-3.36-19.77,1.07-1.88,4.48-9.42,5.33-10.27,1.85-1.87,12.29-6.08,15.13-6.71,11.23-2.45,16.03,3.67,11.08,13.96-4.82,10.01-17.53,19.98-28.18,22.79Z"/><path class="Bleeding_Heart-cls-1-56" d="M338.39,338.42c-5.64,9.62-18.03,23.25-27.12,30.69-14.59,11.29-19.81-3.86-11.95-15.31,10.92-7.44,21.39-15.58,30.69-24.99,1.88,3.8,4.32,7.85,8.39,9.62Z"/><path class="Bleeding_Heart-cls-5-9" d="M199.68,342.24c3.33-3.37,2.52,3.94,9.6,2.88-1.71,9.2-6.74,20.5-14.72,25.84-2.75,1.84-7.08,4.71-8.56.09-3.25-10.12,6.25-22.72,13.69-28.81Z"/><path class="Bleeding_Heart-cls-5-9" d="M209.28,328.32c-2.33-.33-4.06,2.86-5.97,2.91-7.06.18-23.45-6.31-24.71-14.22-1.5-9.38,9.34-9.65,15.46-6.34,2.04,1.7,13.19,13.92,15.23,17.65Z"/><path class="Bleeding_Heart-cls-1-53" d="M277.44,367.2c-8.18,14.95,5.08,35.11.24,48.48-2.39,5.45-9.02,7.38-13.22,2.65-4.49-5.06-3.51-13.24-2.86-19.45,2.25,6.91,9.53,10.25,11.47,1.16,1.52-11.17-8.57-24.79,4.36-32.84Z"/><path class="Bleeding_Heart-cls-5-9" d="M211.26,344.69c3.34-.51,5.03-3.39,7.14-4.85,2.37,7.29,10.62,19.72,7.92,27.36-5.36,10.94-13.42.63-14.01-7.1-.43-2.14-1.85-14.48-1.05-15.4Z"/><path class="Bleeding_Heart-cls-5-9" d="M203.52,332.16c-1.56,1.96-2.19,4.17-2.49,6.63-4.53,1.33-35.38,15.44-22.01,1.27,8.22-6.89,14.2-8.63,24.5-7.9Z"/><path class="Bleeding_Heart-cls-1-50" d="M209.28,328.32c1.1-.34,8.21,7.69,9.07,8.32-8.89,15.58-24.83,2.75-9.07-8.32Z"/><path class="Bleeding_Heart-cls-1-53" d="M269.76,379.68c-.26,6.57,2.67,12.81,1.92,19.44-.83,7.37-7.44,5.38-8.16-.96s2.22-12.31,2.4-18.48c1.42.23,2.43.58,3.83,0Z"/><path class="Bleeding_Heart-cls-5-9" d="M235.08,354.12c-1.89,1.93-8.52-3.29-9.97-4.91-1.12-1.26-6.43-10.51-5.75-11.29,2.18,2.69,18.98,11.65,15.72,16.2Z"/><path class="Bleeding_Heart-cls-1-53" d="M260.64,366.24c4.21.54,7.53,5.63,12,2.88-.06,1.07-.91,1.69-1.33,2.74-3.87,15.94-6.77-.04-10.66-5.62Z"/><path class="Bleeding_Heart-cls-6-2" d="M296.64,205.92h-.96c-3.92-3.41-7.49-9.03-9.12-13.92,3.48,4.49,6.29,9.67,10.08,13.92Z"/><path class="Bleeding_Heart-cls-4-11" d="M280.8,237.6l-.48.48c-.58-1.3-1.79-2.74-1.92-4.32l2.4,3.84Z"/><path class="Bleeding_Heart-cls-7-12" d="M207.84,283.2c-3.53-.39-9.73-4.28-12.46-6.5-2.36-2.7,2.4-.83,3.32-2.44.55-1.89-4.85-5.6,2.9-4.03-3.9-4.03-.66-2.49-.01-3.38.31-.43-.68-2.12-.47-2.85,1.02-.99,11.17,7.06,12.79,8.12.76.14,4.72-4.48,6.35-4.34-1.9-6.53-3.75-12.78-.53-19.4-.13-.83-3.57-.93-1.92-4.9.38-.92,2.22-2,2.04-2.75-10.18-6.76-4.21-12.92,5.27-5.53.3-.39-2.85-9.57,1.61-8.11,2.32.76,1.96,6.88,2.23,7.15,3.44-.27,3.17.45,4.79,3.13,10.51.56,8.43,7.21-.95,6.47,6.96,8.71-6.73,14.24-6.24,2.63-.03-.54.31-1.32-.47-1.19-3.5,5.34-5.69,15.42-.15,20.08,2.51-.51,5.05-.46,7.6-.42,4.35.07,3.34,1.63,6.95-2.13,2.26-1.95,6.81-9.73,9.59-8.9l.48,5.29,8.16-2.88-1.44,7.2c3.39-.59,2.05,1.02,2.43,1.39.27.27,3.71-.47,3.33,1.24-.13.58-7.27,7.06-8.4,8.4-.41.48-2.51,3.02-2.56,3.22-.15.59,1.74,6.22,1.87,8.05.08,12.9-5.79,9.39,8,16.48,3.41,2.22-2.67,2.29-3.15,3.05-.6.93,1.09,2.32-1.98,1.85.67,1.38,1.67,2.67,1.44,4.31h-3.84s1.44,5.76,1.44,5.76c-1.44,1.47-12.2-9.56-13.66-9.59-4.52,2.12-10.95,3.85-16.2,2.26-1.4-.31-4.33-1.86-5.3-1.71-2.44.37-11.02,11.24-8.99.89l-2.4.48v-2.4c-9.23,1.85-2.12-2.6-3.82-5.06-.49-.29-9.11-.3-6.44-2.66,9.21-6.75,11.05-3.77,8.82-16.28q.24-1.39,0,0Z"/><path class="Bleeding_Heart-cls-2-13" d="M228.85,266.53c24.43-2.57,32.74,31.95,10.51,40.75-30.5,12.08-41.76-37.47-10.51-40.75Z"/><path class="Bleeding_Heart-cls-1-55" d="M249.61,260.62c2.73.3,4.85-1.8,7.43-2.37.06,1.2-1.93,6.05-1.21,6.71.18.17,1.6-.25,1.9.05.4.39-.9,2.07,2.91,1.4-15.52,17.48-5.87,5.45-21.6-.01,1.31-3.92,7.35-7.36,9.84-11.03l.73,5.26Z"/><path class="Bleeding_Heart-cls-1-55" d="M207.84,283.2c-1.21-2.17-8.82-4.13-10.56-6.96,5.17-.49,3-1.55,1.44-5.03l5.28.47c.7-.59-2.24-2.68-2.4-3.12-.12-.34.84-.24,1.18-.74s.21-1.36.27-1.42c.76-.74,8.67,5.76,10.03,6.55.24.79-2.49,5.1-3.07,6.41-.73,1.64-.24,3.58-2.17,3.83Z"/><path class="Bleeding_Heart-cls-1-55" d="M260.16,302.89c-.99,2.03-3.2-.38-3.48,2.78-.55.51-1.73-.79-1.21,1.67.21.98,1.01,1.81,1.34,2.74l-4.32-.47.96,4.79c-2.32-.65-8.04-6.04-9.59-7.45,11.9-10.62,2.47-10.15,16.31-4.06Z"/><path class="Bleeding_Heart-cls-1-55" d="M212.64,312c-.13-.75.17-4.16,0-4.32s-1.76.17-1.93,0,.17-1.75,0-1.93c-.34-.36-3.53.27-4.32.48l1.23-4.82c-2.03-.89-4.34-1.01-6.51-.94.05-1.86,6.32-4.87,7.92-6.71,4.99,14.95,16.71,10.78,3.6,18.23Z"/><path class="Bleeding_Heart-cls-1-51" d="M223.2,248.16c-1.35,5.94-2.93,12.14.9,17.53l-2.33,1.19c-2.19-3.19-5.45-20.4,1.43-18.72Z"/><path class="Bleeding_Heart-cls-5-9" d="M226.03,239.95c-1.93,2.21-11.4-2.83-10.03-6.67.94-.95,8.71,2.58,9.61,3.59.52.59.78,2.67.42,3.08Z"/><path class="Bleeding_Heart-cls-5-9" d="M228.49,242.4c1.94-1.29,8.58,8.33,2.52,9.53-4.22.83-3.47-7.29-2.52-9.53Z"/><path class="Bleeding_Heart-cls-5-9" d="M227.52,240.96c.06,3-6.49,8.74-8.67,5.43-2.8-4.25,6.16-5.52,8.67-5.43Z"/><path class="Bleeding_Heart-cls-5-9" d="M239.46,240.06c1.5,2.38-5.45,2.53-6.92,2.37-3.49-.38.63-1.77,1.04-3.9,1.06.34,5.42.8,5.88,1.53Z"/><path class="Bleeding_Heart-cls-8-15" d="M231.69,239.86c-2.78,3.38-6.92-2.01-2.85-4.06,2.97-1.5,4.36,2.22,2.85,4.06Z"/><path class="Bleeding_Heart-cls-5-9" d="M226.55,228c4.08,7.14-1.78,13.14-.95.71.08-.67.25-1.38.95-.71Z"/><path class="Bleeding_Heart-cls-6-2" d="M234.72,302.88c.12,1.36-2.45,2.44-3.61,2.43-1.47-.01-.74-2.27-1.48-2.47-1.32-.35-5.33,1.52-5.93.98-.17-.15-1.06-4.04-.93-4.46.4-1.27,2.31-.65,2.4-2,.07-.96-3.36-10.72-3.86-11.07-1.37-.96-3.07,1.32-3.86.75-2.19-5.35-3.36-6.73,2.85-8.18.69-.8-1.68-3.95-.87-5.2,6.44-2.46,3.41-.13,6.17,2.82-.14-2.79-1.89-4.99,2.17-4.84,2.53.09,1.49,2.88,2.22,3.34.43.28,2.84-.05,3.91.17,3.99.8,6.67,7.09,3.72,10.21,3.93,2.17,6.97,2.15,6.25,7.7-.48,3.76-5.54,4.86-5.75,5.78-.19.84,3.29,5.72-2.91,4.03-.52-.64-.68-.64-.48,0Z"/><path class="Bleeding_Heart-cls-4-11" d="M235.2,302.88h-.48c-1.39-1.57.19-2.21.48,0Z"/><path class="Bleeding_Heart-cls-8-15" d="M229.07,275.89c1.11,1.16,4.26-.7,6.87,2.01,3.72,3.85.32,5.97-.74,9.62,7.87-1.85,11.77,7.12,1.01,10.13-.67,1.05,1.59,3.45.9,4.27-1,1.19-1.83-2.71-1.97-2.82-.63-.44-2.79-.17-2.82,1.11-.03,1.74,2.45,3.23-.71,3.65-1.01-5.09-3.44-1.43-6.98-1.93-.97-3.44,2.28-1.9,2.41-4.52l-4.4-12.45c-1.37-2.24-4.34.44-4.72.16-3.01-5.89,2.33-3.89,3.63-5.74.98-1.41-1.69-4.18-.29-5.08,3.33-2.15,1.03,5.06,4.7,3.26,2.08-1.02.43-2.66.61-4.44,2.3-.56,1.73,1.96,2.51,2.76Z"/><path class="Bleeding_Heart-cls-4-11" d="M234,300.48c.31.16.31.32,0,.48v-.48Z"/><path class="Bleeding_Heart-cls-6-2" d="M231.77,282.3c1.66,2.66-4.69,6.02-5.15,1.05-.17-1.85,4.61-1.92,5.15-1.05Z"/><path class="Bleeding_Heart-cls-6-2" d="M231.43,294.64c-.29-.18-1.33-3.08-.99-3.72,8.36-2.86,4.63,5.96.99,3.72Z"/><path class="Bleeding_Heart-cls-2-13" d="M230.88,282.72c.29,1.81-.83,2.09-2.4,1.92v-1.92s2.4,0,2.4,0Z"/><path class="Bleeding_Heart-cls-2-13" d="M231.84,291.36c.69-.16,3.23-.09,2.88,1.19-.4,1.45-3.78,1.72-2.88-1.19Z"/>
    <path d="M151.73,610.14c1.28-3.61,1.98-7.11,2.26-10.48.66-.17,1.24-.3,1.76-.32,1.58-.07,2.15.72,2.19,1.73.14,3.02-3.02,9.65-4.65,9.73-.77.04-1.21-.19-1.57-.65ZM158.54,609.83c1.28-3.61,1.98-7.11,2.26-10.48.67-.17,1.24-.3,1.76-.32,1.58-.07,2.15.72,2.19,1.73.14,3.02-3.02,9.65-4.65,9.73-.77.04-1.21-.19-1.57-.65Z"/><path d="M161.46,625.36c1.65-9.01,7.72-21.31,9.85-26.16,3.04-.72,5.53-1.07,7.54-1.16,6.71-.31,10.13,1.99,10.29,5.49.26,5.61-4.56,10.59-9.16,12.96,2.56.22,4.43,1.29,4.54,3.68.31,6.67-10.07,13.1-14.86,13.32-5.23.24-8.93-4.11-8.21-8.13ZM178.6,620.82c-.02-.53-.43-.94-1.24-.9-1.39.06-5.25.91-8.8,1.94l-1.42,4.77c-.41,1.46-.1,1.93,1.33,1.86,4.84-.22,10.23-5.32,10.12-7.67ZM182.66,605.64c-.08-1.63-1.32-2.63-3.62-2.52-.96.04-2.11.14-3.35.39-1.85,3.59-3.91,8.97-5.61,13.81,8.16-2.39,12.76-7.84,12.58-11.68Z"/><path d="M186,628.17c-.23-5.04,5.08-15.95,5.52-19.04,3.41-.16,4.84.83,4.9,2.08.08,1.73-4.26,11.83-4.11,15.13.02.34.17.62.56.6,2.78-.13,7.71-5.93,10.6-18.36,2.49-.11,4.5.75,4.57,2.29.07,1.49-4.1,12.3-4,14.5.02.53.28.76.66.74,1.29-.06,4.1-2.74,6.64-8.19l.57-1.18c1.88.01,2.43.66,2.08,1.44l-.56,1.37c-2.53,5.59-7.77,11.79-12.14,11.99-1.97.09-3.42-1.29-3.52-3.4-.04-.86.24-2.08.66-3.39-2.35,4.29-5.57,7.46-8.64,7.6-2.25.1-3.67-1.51-3.8-4.2Z"/><path d="M210.51,625.13c-.39-8.54,8.12-31.42,14.17-31.69,2.4-.11,3.49,1.76,3.6,4.21.21,4.56-3.54,15.01-11.58,22.11-.22,1.55-.3,2.99-.24,4.19.06,1.29.33,1.86,1,1.83,1.77-.08,6.64-4.01,8.69-8.57l.57-1.23c1.15-.05,2.08.34,2.13,1.39l-.65,1.47c-2.22,4.95-8.81,12.13-13.56,12.35-2.35.11-3.92-1.6-4.12-6.06ZM225.23,599.23c-.03-.72-.24-.95-.52-.94-1.49.07-5.21,8.98-7.1,17,5.02-5.8,7.76-13.14,7.62-16.06Z"/><path d="M225.33,624.45c-.39-8.54,8.12-31.42,14.17-31.69,2.4-.11,3.49,1.76,3.6,4.21.21,4.56-3.54,15.01-11.58,22.11-.22,1.55-.29,2.99-.24,4.19.06,1.29.33,1.86,1,1.83,1.77-.08,6.64-4.01,8.69-8.57l.57-1.23c1.15-.05,2.08.34,2.13,1.39l-.65,1.47c-2.22,4.95-8.81,12.13-13.56,12.35-2.35.11-3.92-1.6-4.12-6.06ZM240.04,598.55c-.03-.72-.24-.95-.52-.94-1.49.07-5.21,8.98-7.1,17,5.02-5.8,7.76-13.14,7.63-16.06Z"/><path d="M240.14,623.77c-.39-8.54,8.12-31.42,14.17-31.69,2.4-.11,3.49,1.76,3.6,4.21.21,4.56-3.54,15.01-11.58,22.11-.22,1.55-.29,2.99-.24,4.19.06,1.29.33,1.86,1,1.83,1.78-.08,6.64-4.01,8.69-8.57l.57-1.23c1.15-.05,2.08.34,2.13,1.39l-.65,1.47c-2.22,4.95-8.82,12.13-13.56,12.35-2.35.11-3.92-1.6-4.12-6.06ZM254.86,597.87c-.03-.72-.24-.95-.52-.94-1.49.07-5.21,8.98-7.1,17,5.02-5.8,7.76-13.14,7.63-16.06Z"/><path d="M253.81,625.31c-.19-4.17,3.52-13.42,5.65-19.43,2.3-.11,4.46.95,4.54,2.63.07,1.58-4.39,11.16-4.24,14.37.03.58.18.81.52.79,1.68-.08,4.43-2.89,6.92-8.29l.52-1.18c1.2-.05,2.09.48,2.13,1.44l-.61,1.37c-2.13,4.81-7.24,12.01-11.79,12.22-2.3.11-3.54-1.76-3.64-3.92ZM260.59,600.15c-.11-2.49,1.2-5.34,3.45-5.44,1.92-.09,3.13,1.11,3.19,2.55.11,2.4-1.62,5.55-3.78,5.65-1.87.09-2.79-1.03-2.87-2.75Z"/><path d="M263.74,621.87c-.01-1.35.44-1.99,1.21-2.03.96-.04,3.4.81,6.48.9-.36-1.47-.97-3.32-1.4-5.41l-.13.29-.66,1.38c-1.1.05-2.01-.77-2.05-1.69l.52-1.18,1.79-4.07c.33-3.38,2.45-6.21,5.33-6.35,1.73-.08,2.86.64,3.31,1.87-1.81.28-2.96,2.44-2.88,4.36.12,2.59,1.67,5.98,2.11,9.42,1.78-1.09,3.24-2.7,4.16-4.71l.61-1.28c1.1-.05,2.05.72,2.04,1.54l-.56,1.37c-1.44,3.24-3.75,5.12-6.21,6.1-.71,3.49-4.04,6.29-7.44,6.44-4.22.19-6.28-2.88-6.23-6.97ZM268.92,625.86c1.2-.06,2.37-.78,2.62-2.47-2.93-.01-4.79-.79-5.08-.78-.1,0-.19.1-.18.25-.02,1.59.91,3.08,2.64,3Z"/><path d="M278.58,624.7c-.14-2.97,8.11-22.33,10.41-34.02,2.55.03,4.75.98,4.85,3,.09,1.92-2.7,10.36-6.96,22.14,2.92-5.61,7.97-11.71,11.57-11.87,1.97-.09,3.33,1.29,3.42,3.35.15,3.36-4.64,10.93-4.52,13.66.02.38.26.52.6.5,1.44-.07,2.94-1.96,4.21-4.56,1.2-.06,1.75.45,1.79,1.26.13,2.78-4.84,8.68-9.21,8.88-2.25.1-3.55-2-3.63-3.68-.15-3.17,4.44-11.21,4.37-12.55-.02-.38-.22-.57-.55-.55-1.29.06-4.42,2.17-8,9.02-1.45,3-2.2,6.49-2.24,8.8-4.08.19-5.99-.73-6.11-3.37Z"/><path d="M315.46,620.13c-.29-6.43,4.53-15.54,9.18-15.75,1.15-.05,2.28.38,2.82,1.7.87-2.06,2.24-3.51,3.82-3.59,1.73-.08,2.94,1.31,3.07,3.99.13,2.73-.72,6.28-2.25,9.57l.34.03c2.06-.09,3.42-1.84,4.38-3.95l.57-1.18c1.06-.05,2.04.44,2.09,1.49l-.56,1.32c-1.31,2.85-3.63,5.64-6.99,5.8-.58.03-1.16-.04-1.64-.16-2.42,3.86-5.74,6.85-9.34,7.01-3.16.15-5.29-2.3-5.48-6.28ZM323.23,620.78c1.58-.07,3.09-1.68,4.25-3.85-.74-1.36-1.06-3.12-1.13-4.71-.08-1.73.18-3.47.64-4.98-3.24,1.69-5.59,7.03-5.4,11.06.08,1.68.55,2.52,1.65,2.47Z"/><path d="M333.82,622.27c-.14-3.07,5.06-14.36,6.29-20.04,2.75.21,4.42.95,4.5,2.77.06,1.34-1.01,4.08-2.5,8.43,3.13-6.15,7.63-11.83,11.56-12.01,2.01-.09,3.33,1.29,3.41,3.21.16,3.5-4.59,11.07-4.46,13.8.02.38.22.52.55.5,1.49-.07,2.99-1.96,4.21-4.56,1.2-.06,1.75.45,1.79,1.26.13,2.78-4.84,8.68-9.2,8.88-2.25.1-3.54-1.76-3.63-3.68-.15-3.17,4.44-11.21,4.38-12.55-.02-.38-.22-.57-.55-.55-1.53.07-4.37,2.17-7.95,9.01-1.31,2.8-2.31,6.16-2.53,8.72-3.98.18-5.76-.89-5.86-3.19Z"/><path d="M370.7,617.6c-.29-6.43,4.53-15.54,9.18-15.75,1.15-.05,2.28.38,2.82,1.7.87-2.06,2.24-3.51,3.82-3.59,1.73-.08,2.94,1.31,3.07,3.99.12,2.73-.72,6.28-2.25,9.57l.34.03c2.06-.09,3.42-1.84,4.38-3.95l.57-1.18c1.05-.05,2.04.44,2.09,1.49l-.56,1.32c-1.31,2.85-3.63,5.64-6.99,5.8-.58.03-1.16-.04-1.64-.16-2.42,3.86-5.74,6.85-9.34,7.01-3.16.15-5.29-2.3-5.48-6.28ZM378.46,618.25c1.58-.07,3.09-1.68,4.25-3.85-.74-1.36-1.06-3.12-1.13-4.71-.08-1.73.18-3.47.64-4.98-3.24,1.69-5.59,7.03-5.4,11.06.08,1.68.55,2.52,1.65,2.47Z"/><path d="M389.88,618.83c-.23-5.04,5.08-15.95,5.52-19.04,3.41-.16,4.84.84,4.9,2.08.08,1.73-4.26,11.82-4.11,15.13.02.34.17.62.56.6,2.78-.13,7.71-5.93,10.6-18.36,2.49-.11,4.5.75,4.57,2.29.07,1.49-4.1,12.3-4,14.5.02.53.28.76.66.74,1.29-.06,4.1-2.74,6.64-8.19l.57-1.18c1.88.01,2.43.66,2.08,1.44l-.56,1.37c-2.53,5.59-7.77,11.79-12.14,11.99-1.97.09-3.42-1.28-3.52-3.4-.04-.86.24-2.08.66-3.39-2.35,4.29-5.57,7.46-8.64,7.6-2.25.1-3.67-1.51-3.8-4.2Z"/><path d="M418.46,618.58c-.1-2.11,1.01-5.33,3.11-10.81.56-1.32.55-1.71-.97-2.26l-1.08-.43c-.61,1.47-1.21,2.89-1.61,3.73l-.61,1.37c-1.2.06-2-.58-2.04-1.64l.52-1.18,1.38-3.33c-.89-.49-1.2-.91-1.23-1.63-.05-1.2,1.88-5.13,3.41-8.47,2.17.19,3.59.8,3.65,2.09.04.91-1.4,2.9-1.38,3.48.02.38.46.51,3.68,1.61,2.1.77,3,1.45,3.05,2.6.09,2.01-3.95,9.17-3.83,11.9.01.29.11.38.31.37,1.49-.07,2.99-1.92,4.21-4.52,1.2-.05,1.75.5,1.79,1.31.13,2.78-4.84,8.73-9.25,8.93-1.58.07-3.03-1.11-3.12-3.12Z"/><path d="M149.03,678c-.39-8.54,8.12-31.42,14.17-31.69,2.4-.11,3.49,1.76,3.6,4.21.21,4.56-3.54,15.01-11.58,22.11-.22,1.55-.3,2.99-.24,4.19.06,1.3.33,1.86,1,1.83,1.77-.08,6.64-4,8.69-8.57l.57-1.23c1.15-.05,2.08.34,2.13,1.39l-.65,1.47c-2.22,4.95-8.81,12.13-13.56,12.35-2.35.11-3.92-1.6-4.12-6.06ZM163.74,652.09c-.03-.72-.23-.95-.52-.94-1.49.07-5.21,8.99-7.1,17,5.02-5.8,7.76-13.14,7.62-16.06Z"/><path d="M163.4,677.15c-.29-6.43,4.38-15.53,8.89-15.74,1.05-.05,2.08.34,2.75,1.32.68-1.81,2.21-3.13,3.98-3.21,1.82-.08,3.14,1.35,3.27,4.18.04.96-.05,1.97-.24,3.09,2.37-.69,4.29-2.84,5.55-5.73l.57-1.23c1.1-.05,2.04.48,2.09,1.54l-.57,1.28c-1.61,3.68-4.63,7.04-8.54,7.65-2.11,6.3-6.95,12.91-12.28,13.15-3.17.15-5.3-2.3-5.48-6.28ZM171.22,677.8c2.4-.11,4.62-3.96,5.73-8.09-1.63-.89-2.28-2.59-2.36-4.31-.02-.33.02-.67.05-.96-3.14,1.78-5.36,6.73-5.18,10.76.08,1.63.51,2.67,1.75,2.61Z"/><path d="M182.69,678.57c-.25-5.37,3.44-15.05,5.32-19.23,2.69-.03,4.36.81,4.33,2.25-.06,1.92-3.73,10.89-3.58,14.15.03.72.28.95.86.92,2.11-.1,4.21-2.55,5.99-5.7l-.03-.72c-.17-3.69,1.92-11.67,3.4-11.74.96-.04,2.62,1.56,2.69,3.19.11,2.35-.65,5.65-2.14,8.99.37.8.81.97,1.15.96.96-.04,2.29-1.31,3.26-3.32l.52-1.18c1.2-.05,2.1.62,2.13,1.44l-.61,1.38c-1.4,3.04-3.39,5.78-6.12,5.9-1.15.05-1.98-.29-2.64-.89-2.69,4.16-6.43,7.45-10.65,7.65-2.92.13-3.79-1.89-3.89-4.05Z"/><path d="M202.53,674.39c-.27-5.8,5.41-16.25,11.78-16.54,2.59-.12,5.45,1.48,5.59,4.45.2,4.46-3.84,9.55-8.64,9.77-1.34.06-2.26-.13-3-.49-.12.63-.14,1.21-.11,1.78.12,2.54,1.45,3.39,3.66,3.29,2.16-.1,4.92-1.62,6.75-4.78.74.4,1.11,1.15,1.13,1.68.16,3.45-4.98,7.82-9.96,8.05-4.17.19-6.96-2.03-7.2-7.21ZM210.07,669.1c3.6-.16,5.53-5.16,5.44-7.22-.03-.58-.23-.76-.61-.74-1.82.08-4.63,3.77-5.99,7.72.39.17.78.25,1.16.24Z"/><path d="M220.73,678.36c-.12-2.49,1.2-5.34,3.45-5.44,1.92-.09,3.13,1.11,3.19,2.54.11,2.4-1.62,5.55-3.78,5.65-1.87.09-2.79-1.03-2.87-2.75Z"/><path d="M233.95,656.42c1.28-3.61,1.98-7.11,2.26-10.48.67-.17,1.24-.3,1.76-.32,1.58-.07,2.15.72,2.19,1.73.14,3.02-3.02,9.65-4.65,9.73-.77.04-1.21-.18-1.57-.65ZM240.76,656.11c1.28-3.61,1.98-7.11,2.26-10.48.66-.17,1.24-.3,1.76-.32,1.58-.07,2.15.72,2.19,1.73.14,3.02-3.02,9.65-4.65,9.73-.77.04-1.21-.19-1.57-.65Z"/>
  </svg>