<svg xmlns="http://www.w3.org/2000/svg" viewBox="0 0 540 756">
    <defs><style>.Black-cls-1-3{stroke:#c7b299;stroke-miterlimit:10;stroke-width:4px;}.Black-cls-1-3,.Black-cls-2-6{fill:#fff;}.Black-cls-3-5{mix-blend-mode:soft-light;}.Black-cls-4-0{isolation:isolate;}.Black-cls-5-2{fill:#353535;}.Black-cls-6-4{fill:#625bbf;}.Black-cls-7-1{fill:#f7f7f7;}</style></defs><g class="Black-cls-4-0"><g id="Background"><rect class="Black-cls-7-1" x=".15" y=".15" width="539.08" height="757.15"/><rect class="Black-cls-5-2" x=".15" y=".15" width="539.69" height="573.86"/><path class="Black-cls-1-3" d="M.15.15v757.14h539.08V.15H.15ZM504.23,722.29H35.15V35.15h469.08v687.14Z"/><circle class="Black-cls-6-4" cx="108.27" cy="575.71" r="45.86"/><g class="Black-cls-3-5"><path class="Black-cls-2-6" d="M107.66,565.07c.96,0,1.46-.32,1.6-.49-.19-.18-.95-.59-2.81-.59-.45,0-.92.03-1.39.09.34.55,1.06.99,2.6.99Z"/><path class="Black-cls-2-6" d="M98.82,584.43c2.88-1.06,5.61-3.44,7.79-6.88,1.02-1.8,1.63-3.49,1.74-4.81-3.84,2.87-7.41,6.9-9.53,11.7Z"/><path class="Black-cls-2-6" d="M107.37,570.37c-.28-.12-.62-.18-1.02-.18-2.51,0-4.48,1.71-5.69,3.14-2.02,2.39-3.21,5.58-3.2,7.32,2.55-4.25,6.14-7.75,9.91-10.29Z"/><path class="Black-cls-2-6" d="M97.5,564.22c.45-1.31.68-2.48.68-3.5,0-.86-.17-2.02-.98-2.64-.42-.31-.64-.75-.64-1.29,0-.83.63-1.45,1.45-1.45.38,0,.74.13,1.11.4,1.21.85,1.86,2.33,1.86,4.28,0,.85-.12,1.78-.36,2.76.29-.11.58-.2.87-.29-.02-.22-.03-.45-.03-.7,0-.99.21-2.06.62-3.17.22-.6.47-1.14.76-1.67-.14-.13-.28-.25-.41-.38-1.41-1.32-2.63-2.46-6.38-2.46-9.74,0-18.09,9.25-18.09,16.83,0,3.64,1.87,5.26,6.07,5.26,1.53,0,2.63-.35,4.09-1.04.17-.47.39-.98.66-1.56,1.9-3.91,4.99-7.21,8.73-9.36Z"/><path class="Black-cls-2-6" d="M116.1,554.38c.12-.38.2-.73.2-.94,0-.84-.68-1.27-2.03-1.27-1.81,0-5.27,1.48-7.49,4.63.99.52,2.31.94,4.31.94,2.84-.14,4.59-2.13,5.01-3.36Z"/><path class="Black-cls-2-6" d="M125.59,577.3c.55-1.47.48-2.17.36-2.34-.02-.03-.11-.05-.23-.05-1.51,0-5.62,3.66-7.8,9.64-.53,1.5-.71,2.87-.53,3.84,3.85-3.4,6.94-7.56,8.19-11.08v-.02Z"/><path class="Black-cls-2-6" d="M130.01,568.55c-5.78,0-15.3,9.21-19.59,18.94-1.05,2.44-1.72,4.71-1.95,6.66,2.25-.92,4.58-2.3,6.87-4.06-.77-1.56-.71-3.75.19-6.18,2.23-6.23,6.89-11.31,10.38-11.31,1.18,0,1.81.55,2.13,1.02.67.97.64,2.44-.08,4.38-1.4,3.86-4.69,8.29-8.93,12.04.16.02.33.04.52.04,2.85-.08,8.5-4.26,12.05-13.3,1.33-3.4,1.62-6.06.78-7.29-.43-.63-1.21-.94-2.37-.94Z"/><path class="Black-cls-2-6" d="M108.27,538.79c-20.39,0-36.92,16.53-36.92,36.92s16.53,36.92,36.92,36.92,36.92-16.53,36.92-36.92-16.53-36.92-36.92-36.92ZM119.43,592.39h0c-.99,0-1.82-.2-2.52-.6-2.77,2.16-5.65,3.83-8.43,4.88.31,3.08,2.18,4.83,5.22,4.83,5.69,0,12.19-4.62,14.69-8.94.31-.52.81-.8,1.37-.8h.56l.36.5c.33.54.07,1.06-.12,1.45-2.81,4.93-10.11,10.2-17.06,10.2-4.24,0-7.28-2.4-8.18-6.33-1.15.25-2.3.37-3.44.37-3.61,0-5.43-1.56-6.33-2.86-1.28-1.87-1.59-4.62-.93-7.64-4.52-.24-7.42-3.18-7.42-7.64,0-.62.06-1.26.17-1.94-1,.35-2.14.61-3.46.61-5.64,0-8.88-2.92-8.88-8.02,0-8.41,9.74-18.67,21.1-18.67,4.31,0,6.35,1.67,8.13,3.16,2.84-3.34,7.11-5.08,10.1-5.08,3.68,0,4.99,1.87,4.99,3.63,0,.56-.08,1.02-.27,1.51-.6,1.68-3.06,4.93-8.07,5.09h0c-2.13,0-3.87-.38-5.4-1.18-.06.13-.11.27-.17.4-.35.93-.57,1.76-.66,2.46.62-.07,1.2-.1,1.75-.1,3.79,0,5.14,1.48,5.14,2.87s-1.42,2.82-4.13,2.82c-2.44,0-4.32-.94-5.32-2.6-.92.33-1.85.76-2.78,1.29-1.69,3.83-4.63,7.42-7.95,9.7-.61,1.62-.93,3.17-.93,4.5,0,3.06,1.69,4.76,4.75,4.8.02-.06.04-.12.06-.19.26-.69.56-1.36.88-2.02-.09.02-.19.03-.29.03-.63,0-1.16-.43-1.32-1.06-.06-.23-.13-.57-.13-.95,0-3.87,5.03-12.97,11.91-12.97,1.33,0,2.43.37,3.28,1.03,2.08-1.18,4.16-2.07,6.07-2.63.6-.17,1.08-.09,1.41.23l.42.41-.14.64c-.13.47-.56.86-1.11.99-1.66.47-3.44,1.26-5.22,2.3.22.61.34,1.3.34,2.06,0,1.86-.7,4.02-1.97,6.08-2.91,4.4-7.25,7.37-11.73,8.21-.86,2.93-.82,5.27.14,6.66.77,1.1,2.18,1.66,4.21,1.66.93,0,1.9-.11,2.95-.34-.04-2.48.63-5.33,1.99-8.5,4.32-9.88,14.62-20.45,23.09-20.45,2.23,0,3.86.72,4.83,2.14,1.72,2.51.81,6.34-.26,9.12-3.58,9.18-10.59,14.77-15.3,14.88Z"/></g></g></g>
    <defs><style>.Bee_it_Coin-cls-1-3{fill:#f9ab38;}.Bee_it_Coin-cls-2-5{fill:#fff;}.Bee_it_Coin-cls-3-0{fill:#332728;}.Bee_it_Coin-cls-4-2{fill:#9e0101;}.Bee_it_Coin-cls-5-1{fill:#e84992;}.Bee_it_Coin-cls-6-4{fill:#e2069f;}</style></defs><path class="Bee_it_Coin-cls-3-0" d="M270.96,241.92c2.32-5.11.85-21.11-6.91-20.15-2.37.29-3.56,3.33-3.16,5.49.28,1.51,2.68,3.2,3.35,1.45.62-1.63-1.75-1.16-1.43-2.63,6.03.35,2.89,7.35-2.29,4.92-4.76-2.23-1.36-15.02,7.42-9.83,6.55,3.88,6.52,14.72,4.93,21.22,7.23.69,13.56,6.81,18.7,11.52-14.05-49.07,35.03-85.03,52.28-24.96,105.47-51.57,96.59,50.78,4.31,61.92,16.6,20.77,30.01,53.31,11.11,76.66,1.41,4.78,3.83,12.62,1.25,18.03-.25.72-2.38,5.61-3.25,4.67.76-5.43-2.05-11.76-7.66-13.21-3.25-.84-5.75,1.33-8.76,2.3-6.31,2.04-12.81,3.64-19.51,3.76-.39,10.74-12.9,20.16-23,15.73-.64-1.03,2.83-5.5,3.52-7.15,1.53-3.68,2.01-7.83,3.61-11.5-2.48-.39-4.43-1.73-6.23-3.37-2.8,7.82-11.21,16.32-20.15,14.4,3,6.65,35.74,84.08,13.53,70.69-4.59-23.65-11.85-47.26-22.59-68.96-.43-.54-3.62-.09-4.6-2.22-.86-1.88.74-3.4-.02-5.25-8.19-12.92-21.64-29.74-38.11-32.18.5,2.07,2.76,2.79,3.47,4.93,1.94,5.89-3.02,11.15-8.74,11.39,8.91,9.5-.03,15.62-10.06,11.75,2.23,3.85,8.1,14.22,2.25,17.15-4.88,2.45-9.54-1.8-12.33-5.38,4.42,29.54-22.48,28.98-17.75-.48-2.07.5-2.79,2.76-4.92,3.47-6.55,2.17-8.74-4.52-7.55-9.71-11.14,9.4-16.23,2.12-9.59-9.12-6.85,2.44-11.58-.6-7.58-7.83l5.18-6.09c-19.09,1.01-17.07-15.11-.96-17.29.99-.74-.38-.84-.69-1-11.9-4.94-6.29-15.18,5-13.88-8.77-5.67-6.79-19.97,5.27-15.36-.74-12.01,10.47-6.86,13.19.48,5.59-18.07,25.23-16.91,17.74,3.83,10.85-7.21,23.29-.09,14.15,12.01,8.05-1.93,16.7,2.41,11.99,11.52,6.98-.49,13.44,1.98,19.66,4.8,1.12-8.6,10.4-10.6,17.75-10.09-1.46-5.61-3.33-11.46-1.92-17.27-29.02-5.81-43.76-38.89-27.36-64.11.32-1.21-2.22-.46-1.9-1.89.39-1.76,10.98-8.38,13.11-9.45,1.36-.68,8.77-3.13,8.92-3.58-.28-5.65-7.04-13.15-13.27-10.85-2.92,1.18-3.97,6.41-.13,5.87-1.84-6.45,4.7-2.22,2.43,1.24-2.53,3.84-10.12-.31-5.99-6.48,5.83-8.72,19.23,2.41,18.91,10.52.51.18,1.04-.48,1.2-.48h14.15ZM321.31,250.56c2.13-5.29,8.12-10.03,12.25-13.91,2.3-2.33,8.05-4.29,8.31-7.33-18.31-59.32-66.25-20.86-45.48,35.15,4.35-1.15,8.33-2.43,12.95-1.93-3.91-9.99-5.07-20.8-3.83-31.44.11-.92-.44-1.4.95-1.19-1.31,10.26.06,24.19,5.12,33.04.45.17,1.62.24,2.01,0,.31-.19,2.78-5.76,3.17-6.66,5.46-13.39,6.86-12.86-2.14-24.46,3.87,1.83,5.63,5.93,8.14,9.12l6.33-19.35c.1-.82,1.56-1.07,1.82-.81.95.94-7.44,22.59-8.55,25.28-.1.25-3.34,6.77-1.05,4.48ZM336.66,279.37s9.33,9.14,9.33,9.14c24.37-2.57,54.04-13.68,67.31-35.88,28.9-64.3-90.57-31.46-100.14,15.21,5.06.93,9.63,3.36,14.34,5.25.12-1.66,36.2-38.05,31.72-28.5-10.07,9.02-20.73,19.42-30.71,28.78.04,1.4,5.61,4.15,6.26,4.82.97.33,3.63-1.85,4.76-2.43,6.06-3.45,13.8-6.55,19.93-9.33.88-.72,3.92-7.27,4.62-8.81.64-1.41,2.92-8.67,3.32-8.92,4.74-1.81-5.14,14.7-5.32,16.76,3.84-.45,27.29-11.48,26.86-5.28-17.39,3.72-36.37,10.62-52.27,19.21ZM270,243.36l-13.91.47-.48,5.28c-2.52-.05-.41-3.09-.96-4.8-7.29.9-13.75,5.38-19.18,10.08,3.06.18,5.74-1.31,8.63-1.91.63,1.12-1.9,4.37-.48,4.31.14-1.67,6.61-4.88,7.43-5.28,1.63.59-.95,5.25.72,5.76,1.11-4.32,5.34-8.87,3.84-.72.2,2.16,4.6-7.2,9.11-6.96.33,1.98-1.18,4.02.24,5.76,4.03-3.82,9.47-7.27,15.11-7.68.05-2.27-6.74-3.83-8.32-3.88-2.61,5.61-4.27,6.23-1.75-.44ZM229.72,270.24c17.21-15.95,20.15,34.03.96,23.75,24.49,49.44,74.55,15.69,62.94-29.88-5.06-12.96-9.84-20.16-23.58-10.87-3.53,2.56-6.9,8.11-7.25.44-.12-.68.45-1.41-.7-1.2-2.53,1.76-4.88,6.18-5.53,8.63-1.87,1.27-2.61-3.67-2.4-4.8-1.47.36-1.62,5.71-3.37,4.57-1.13-.74-1.57-5.13-1.43-6.49-4.47,1.45-11.57,12.88-8.15.96-1.21.54-6.04.67-6.63,1.04-.68.42-4.92,12.02-4.87,13.84ZM320.12,251.04v.48c.31-.16.31-.32,0-.48ZM297.82,308.16h11.51c-1.37-3.5-5.74-5.86-6.23-9.6h7.67l-4.28-6.9c.19-1.13,5.74-3.31,7.02-4.03,1.11-.62.09-2.17-.44-3.15-2.08-3.87-4.35-4.66-7.85-6.54-4.4-2.37,3.83-3.58,4.1-3.87,1.44-1.49-4.71-3.66-4.83-5.05-.19-2.11,3.35-3.07,4.35-4.54-2.84-.19-9.79.31-11.99,2.15-1.1.92.38,7.36.47,9.13.29,9.9-1.22,23.41-6.7,31.44-.34-2.28,3.7-7.92,1.92-9.12-3.8,12.38-18.44,20.57-30.13,23.13-.45,1.49-1.35,6.84.63,7.59,1.6-.67,5.88-7.21,7.62-6.69,1.19.36,5.75,10.33,9.41,9.57.41-1.71.51-11.29,1.69-11.52.32-.06,4.62,1.81,6.23,1.92,1.09.07,6.15,0,5.27-1.92-5.39-10.02,1.62-2.64,6.46-2.88l-1.92-9.12ZM312.2,265.44c-.18-.19-3.86.57-3.35,1.91,1.2.63,4.6-.62,3.35-1.91ZM308.61,310.08c-2.59.33-5.73-.24-8.39,0l1.44,9.12c-2.7.33-5.07-1.15-7.67-1.44.02,1.72,3.36,3.39,1.1,4.71-3.3,1.93-9.08,1.04-12.61.09l-.96,11.52c-5.27-.54-8.48-5.59-11.28-9.6-.64-.16-6.96,6.26-7.42,7.45-.16,1.57,3.14,11.29,4.31,12,32.23.94,58.23-38.01,61.41-67.18-4.58-5-14.83-7.84-21.59-8.19,1.35.98,5.74,4.12,5.77,5.76.04,2.01-4.64.61-5.29,2.64,3.64.74,8.72,7.28,8.61,10.85-.05,1.65-5.62,2.78-6.67,4.34-.36,1.24,4.69,6.59,3.58,8.34-.62.98-6.17-1.11-7.44-.48.79,3.42,10.96,9.35,3.12,10.08ZM239.79,271.68c-3.49-7.18-10.33-.34-11.3,5.25-.83,4.77.63,16.2,6.79,16.82,7.23-.82,7.19-11.7,6.91-17.03,0-.23-.59-1.48-.96-1.2v10.32c0,3.08-5.29,7.3-7.43,2.16-2.09-5.02-2.74-17.5,5.51-16.32,1.41,1,.72.5.48,0ZM240.51,272.64v.48c.31-.16.31-.32,0-.48ZM236.02,277.85c4.68,1.59,5.13-5.37,1.15-4.75-1.96.3-2,3.35-1.15,4.75ZM329.47,276.96c-1.96,29.93-21.9,55.53-48.91,67.46,4.58,9.42-6.88,20.74,5.16,16.67,30.07-11.12,51.97-40.49,58.58-71.45-2.24-3.66-10.93-11.32-14.83-12.69ZM300.22,374.88c.47.61,12.7-6.45,13.6-7.27,1.24-1.13,1.06-2.59,2.02-3.26,14.9-2.73,32-31.08,37.01-45.04,1.14-3.05,4.12-10.75,3.26-13.58-2.81-5.07-6.59-10.51-10.57-14.85-5.65,27.09-22.87,51.04-46.27,65.52,6.54.56,1.24,14.14.96,18.48ZM183.22,321.58c2.76-.65,8.08,3.56,10.03,2.67,4.39-2,9.18-17.3,2.07-18.87-6.3-1.39-13.35,10.48-12.1,16.2ZM358.23,309.12c-.8-.77-.81.16-.97.7-4.96,21.71-18.28,40.94-35.74,54.51,2.72,6.49,1.33,9.97.27,16.79,19.64-13.74,50.43-46.69,36.44-72ZM181.24,321.56c.22-8.85-15.17-18.25-9.93-3.19,4.09,6.5,3.19,5.25,9.93,3.19ZM173.54,325.38c-2.02-9.1-17.29-13.06-13.29-.26,11.41,13.18,7.27,3.11,13.29.26ZM205.61,319.32c-2.02.32-11.04,4.61-11.35,6.43,2.72,3.01,6.09,6.15,8.41,9.71,11.21-1.4,19.11-17.96,2.94-16.14ZM323.23,381.12c31.8-1.04,51.83-28.72,40.76-59.03-4.03,24.31-20.05,46.13-40.76,59.03ZM182.15,323.15c-28.77,4.62-8.43,64.94,16.42,59.68,24.25-5.64,4.32-60.95-16.42-59.68ZM167.37,333.6c-20.15-2.77-17.24,10.99-.96,11.52-.31-3.92.29-7.69.96-11.52ZM223.32,335.69c-2.77-2.91-9.7-1.77-13.28-.9-11.11,1.79-1.44,8.38-1.42,16.1,5-.85,21-8.57,14.7-15.19ZM258.87,339.98c-5.82-.62-17.86,7.29-9.48,12.09,2.02.92,2.44-.99,3.96-1.77,3.2-1.64,7.75-1.61,9.55-5.32,2.49-5.13.43-5.37-4.04-5ZM264.73,343.68c.6,5.81-12.53,7.11-12.93,9.41-.09.51,6.36,7.11,7.04,7.31,2.3.67,6.66-1.82,8.01-3.79,4.04-7.96,2.65-6.32-2.12-12.93ZM253.21,366.24c1.87-7.3,7.86-.82-3.61-11.98-6.39-5.35-17.41-10.26-25.87-8.64-1.86.36-5.73,4.78-8.4,4.8,17.72,1.44,24.51,3.41,37.88,15.83ZM271.44,346.08c-.1-.1-2.37-.42-2.87-.48.21,4.12,3.7,1.33,2.87.48ZM279.48,346.19c-7.38-3.8-8.49,7.95-11.4,12.13-3.16,3.95-9.07,3.1-11.76,5.5-1.35,1.21-2.23,3.57-.5,4.85,2.61,1.92,5.06-2.64,6.77-2.92,1.98-.33,3.43,1.18,5.3,1.41,10.29,1.21,13.2-13.82,11.59-20.97ZM169.23,358.98c.75-1.17-2.85-9.92-2.42-12.1-.59-1.76-7.75.13-9.33.58-3.94,1.12-12.09,5.41-9.89,10.5,2.5,5.77,16.97,3.31,21.64,1.02ZM217.49,352.8c-2.51-.25-5.36.18-7.91,0l1.49,13.39c16.4,6.79,27.34-9.87,6.43-13.39ZM226.12,352.8v.48c.31-.16.31-.32,0-.48ZM300.14,358.15c-9.06-2.12-5.57,21.44-20.91,26.22-3.18,1.66-14.21.88-11.91,5.9,1.93,2.22,3.92-.69,6.02-1.23,5.52-1.44,7.93,3.08,15.04-1.27,9.25-5.83,12.96-19.43,11.76-29.61ZM293.5,359.52c-1.95.66-3.77,1.54-5.76,2.15-1.16.36-5.6.62-5.27,1.92.13.5,7.79,5.79,8.63,5.05l2.4-9.12ZM169.62,360.54c-5.22,1.28-17.21,8.66-14.25,15.07,3.64,2.28,16.24-4.34,17.75-8.11-.04-1.04-2.52-7.05-3.51-6.96ZM289.61,370.13c-3.95-1.32-7.8-4.35-10.27-7.72-4.25,4.22-7.5,8.18-14.61,5.51l10.34,16.01c6.7-1.1,13.37-7.18,14.53-13.8ZM160.9,362.88v.48c.31-.16.31-.32,0-.48ZM320.35,370.56c-10.98,1.62-14.74,14.39-17.74,23.29-1.43,3.05-5.16,5.47,2.11,4.51,14.46-2.83,15.61-14.7,17.1-27.08,0-4.95-5.49-8.81-5.31-2.16.31.31,4.15-.84,3.84,1.44ZM272.88,384.48l-10.06-16.59c-1.18-.65-3.87,3.96-6.24,2.68l11.04,14.65c1.25.78,3.76-.87,5.27-.74ZM209.61,377.72c16.89,9.67,19.76-7.9,1.89-9.08l-1.89,9.08ZM314.6,369.12l-13.42,6.96c.02.67,5.23,2.92,5.68,2.6.61-1.19,1.83-2.82,2.75-3.75,1.58-1.85,5.63-3.07,4.98-5.81ZM358.24,369.12c-1.74-.27-2.4,1.47-3.61,2.39-1.96,1.49-4.13,2.72-5.98,4.33,5.27.42,9.43,5.39,9.83,10.57,2.8-5.61,1.69-11.64-.24-17.29ZM175.02,370.1c-.7-.48-4.73,2.84-5.77,3.54-12.38,5.41-11.18,25.72,2.68,8.93,1.02-1.15,4.79-5.69,5.26-6.75.96-2.14-2-3.57-2.18-5.72ZM179.35,376.32c-4.53,1.99-10.25,17.59-2.59,18.71,4.2.26,10.53-10.9,9.26-12.9-.24-.38-6.91-3.39-6.66-5.82ZM208.61,379.2c-1.48,1.01-6.31,4.67-8.1,4.84,2.81,18.82,24.29,18.96,8.1-4.84ZM187.52,383.53c-9.21,31.84,14.12,42.03,12.46,10.8-.61-14.35-1.88-6.93-12.46-10.8ZM277.07,390.37c-1.17-1.49-5.71.39-5.56,1.94,10.69,20.98,19.61,45.76,22.95,69.45,14.22,3.41-14.1-64.29-17.39-71.4Z"/><path class="Bee_it_Coin-cls-5-1" d="M194.82,271.32c1.76-1.78,4.1.92,4.21,2.76,3.49-6.92,8.91-6.44,7.93,1.95-.22,1.38-4.15,12.78-4.83,12.93-5.4-3.6-10.86-11.17-7.31-17.64Z"/><path class="Bee_it_Coin-cls-5-1" d="M336.66,279.37c15.89-8.59,34.9-15.5,52.27-19.21.47-6.2-23,4.83-26.85,5.28.72-2.16,7.62-15.94,6.71-16.8-.05-.05-1.22-.07-1.39.04-.4.26-2.68,7.51-3.32,8.92-.7,1.54-3.74,8.09-4.62,8.81-6.14,2.79-13.86,5.88-19.93,9.33-1.13.58-3.79,2.76-4.76,2.43-.67-.67-6.18-3.41-6.26-4.82,9.98-9.36,20.65-19.77,30.72-28.78,4.45-9.5-31.41,26.62-31.72,28.5-4.71-1.89-9.28-4.32-14.34-5.25,9.59-46.69,129.03-79.5,100.14-15.21-13.26,22.21-42.95,33.32-67.31,35.89,0,0-9.33-9.15-9.33-9.15Z"/><path class="Bee_it_Coin-cls-5-1" d="M321.31,250.56c-2.29,2.29.95-4.23,1.05-4.48,1.11-2.69,9.5-24.34,8.55-25.28-.26-.26-1.72,0-1.82.81l-6.33,19.35c-2.51-3.19-4.28-7.29-8.14-9.12,9.01,11.63,7.59,11.08,2.14,24.46-.39.9-2.86,6.46-3.17,6.66-.38.24-1.56.17-2.01,0-5.06-8.87-6.43-22.75-5.12-33.04-1.39-.21-.85.28-.95,1.19-1.23,10.64-.08,21.45,3.83,31.44-4.62-.5-8.6.78-12.95,1.93-20.77-56.07,27.19-94.45,45.48-35.16-.24,3.03-6.02,5-8.31,7.33-4.13,3.87-10.12,8.62-12.25,13.91Z"/><path class="Bee_it_Coin-cls-4-2" d="M329.47,276.96c3.89,1.41,12.59,9,14.83,12.69-6.6,30.95-28.52,60.33-58.58,71.45-12.04,4.07-.59-7.26-5.16-16.67,27.01-11.94,46.95-37.54,48.91-67.46Z"/><path class="Bee_it_Coin-cls-1-3" d="M300.22,374.88c.28-4.32,5.58-17.92-.96-18.48,23.41-14.48,40.63-38.43,46.27-65.52,3.98,4.34,7.77,9.78,10.57,14.85.86,2.84-2.12,10.53-3.26,13.58-4.99,13.93-22.09,42.3-37.01,45.04-.96.67-.79,2.13-2.02,3.26-.9.82-13.13,7.88-13.6,7.27Z"/><path class="Bee_it_Coin-cls-1-3" d="M308.61,310.08c7.84-.73-2.33-6.66-3.12-10.08,1.27-.63,6.82,1.46,7.44.48,1.11-1.75-3.94-7.1-3.58-8.34,1.04-1.56,6.61-2.69,6.67-4.34.11-3.56-4.97-10.11-8.61-10.85.65-2.03,5.33-.63,5.29-2.64-.03-1.64-4.42-4.78-5.77-5.76,6.75.34,17.02,3.19,21.59,8.19-3.16,29.16-29.18,68.12-61.41,67.18-1.17-.71-4.47-10.43-4.31-12,.46-1.18,6.78-7.6,7.42-7.45,2.8,4.01,6.02,9.06,11.28,9.6l.96-11.52c3.53.95,9.31,1.84,12.61-.09,2.26-1.32-1.08-2.98-1.1-4.71,2.6.29,4.97,1.77,7.67,1.44l-1.44-9.12c2.66-.24,5.8.33,8.39,0Z"/><path class="Bee_it_Coin-cls-4-2" d="M297.82,308.16l1.92,9.12c-4.87.23-11.85-7.13-6.47,2.88.87,1.92-4.19,1.99-5.27,1.92-1.62-.11-5.91-1.98-6.23-1.92-1.18.23-1.28,9.81-1.69,11.52-3.66.75-8.22-9.21-9.41-9.57-1.73-.52-6.01,6.01-7.62,6.69-1.98-.75-1.07-6.1-.63-7.59,11.69-2.56,26.33-10.75,30.13-23.13,1.78,1.18-2.26,6.84-1.92,9.12,5.49-8.04,6.99-21.52,6.71-31.44-.09-1.77-1.57-8.21-.48-9.13,2.2-1.84,9.14-2.34,11.99-2.15-1,1.47-4.54,2.44-4.35,4.54.13,1.39,6.27,3.56,4.83,5.05-.27.28-8.51,1.5-4.1,3.87,3.5,1.88,5.77,2.67,7.85,6.54.52.98,1.55,2.53.44,3.15-1.29.71-6.83,2.9-7.02,4.03l4.28,6.9h-7.67c.5,3.74,4.86,6.1,6.23,9.6h-11.51Z"/><path class="Bee_it_Coin-cls-4-2" d="M358.23,309.12c14.06,25.06-16.87,58.41-36.44,72,1.07-6.93,2.45-10.2-.27-16.79,17.46-13.57,30.78-32.81,35.74-54.51.16-.53.17-1.47.97-.7Z"/><path class="Bee_it_Coin-cls-1-3" d="M323.23,381.12c20.7-12.9,36.73-34.73,40.76-59.03,11.08,30.32-8.97,57.99-40.76,59.03Z"/><path class="Bee_it_Coin-cls-1-3" d="M182.15,323.15c20.73-1.29,40.68,54.02,16.42,59.68-24.84,5.27-45.2-55.05-16.42-59.68ZM181.15,326.04c-20.68,6.79-4.33,50.92,12.35,53.64,24.02,2.05,6.3-58.51-12.35-53.64Z"/><path class="Bee_it_Coin-cls-4-2" d="M277.07,390.37c3.17,6.84,31.64,74.84,17.39,71.4-3.34-23.68-12.26-48.48-22.95-69.45-.15-1.56,4.39-3.43,5.56-1.94Z"/><path class="Bee_it_Coin-cls-6-4" d="M187.52,383.53c10.49,3.82,11.9-3.47,12.45,10.8,1.66,31.25-21.66,21.01-12.45-10.8Z"/><path class="Bee_it_Coin-cls-4-2" d="M320.35,370.56c.31-2.28-3.52-1.12-3.84-1.44-.18-6.65,5.31-2.79,5.31,2.16-1.49,12.4-2.64,24.25-17.1,27.07-7.27.96-3.54-1.47-2.11-4.51,2.99-8.89,6.77-21.68,17.74-23.29Z"/><path class="Bee_it_Coin-cls-4-2" d="M300.14,358.15c1.19,10.18-2.51,23.77-11.76,29.61-7.11,4.35-9.52-.17-15.04,1.27-2.1.55-4.09,3.45-6.02,1.24-2.32-5,8.75-4.26,11.91-5.9,15.43-4.87,11.76-28.25,20.91-26.22Z"/><path class="Bee_it_Coin-cls-4-2" d="M270,243.36c-2.52,6.67-.86,6.05,1.75.44,1.58.05,8.36,1.61,8.32,3.88-5.64.41-11.08,3.86-15.11,7.68-1.42-1.73.09-3.78-.24-5.76-4.56-.21-8.88,9.1-9.11,6.96,1.5-8.17-2.74-3.58-3.84.72-1.67-.51.91-5.17-.72-5.76-.83.41-7.27,3.6-7.43,5.28-1.41.07,1.11-3.19.48-4.31-2.89.6-5.57,2.09-8.63,1.91,5.43-4.69,11.89-9.18,19.18-10.08.55,1.71-1.56,4.75.96,4.8l.48-5.28,13.91-.47Z"/><path class="Bee_it_Coin-cls-4-2" d="M253.21,366.24c-13.42-12.45-20.14-14.38-37.88-15.83,2.67-.02,6.54-4.44,8.4-4.8,8.47-1.62,19.48,3.3,25.87,8.64,11.43,11.15,5.51,4.67,3.61,11.98Z"/><path class="Bee_it_Coin-cls-6-4" d="M169.23,358.98c-4.67,2.29-19.14,4.74-21.64-1.02-2.21-5.09,5.95-9.38,9.89-10.5,1.59-.45,8.75-2.34,9.33-.58-.43,2.18,3.17,10.93,2.42,12.1Z"/><path class="Bee_it_Coin-cls-4-2" d="M279.48,346.19c1.6,7.16-1.29,22.17-11.59,20.97-1.87-.23-3.32-1.74-5.3-1.41-1.71.28-4.16,4.85-6.77,2.92-1.74-1.28-.86-3.65.5-4.85,2.69-2.4,8.6-1.55,11.76-5.51,2.9-4.17,4.02-15.93,11.4-12.13Z"/><path class="Bee_it_Coin-cls-6-4" d="M223.32,335.69c6.3,6.62-9.69,14.34-14.7,15.19-.02-7.74-9.69-14.29,1.42-16.1,3.57-.87,10.51-2,13.28.9Z"/><path class="Bee_it_Coin-cls-6-4" d="M217.49,352.8c20.94,3.54,9.93,20.19-6.43,13.39l-1.49-13.39c2.55.18,5.4-.25,7.91,0Z"/><path class="Bee_it_Coin-cls-6-4" d="M205.61,319.32c16.14-1.83,8.3,14.72-2.94,16.14-2.31-3.56-5.69-6.71-8.41-9.71.32-1.82,9.34-6.11,11.35-6.43Z"/><path class="Bee_it_Coin-cls-6-4" d="M183.22,321.58c-1.25-5.72,5.79-17.6,12.1-16.2,7.12,1.57,2.32,16.87-2.07,18.87-1.95.89-7.27-3.31-10.03-2.67Z"/><path class="Bee_it_Coin-cls-6-4" d="M169.62,360.54c.98-.1,3.47,5.92,3.5,6.96-1.52,3.77-14.1,10.39-17.75,8.11-2.95-6.42,9.02-13.78,14.25-15.07Z"/><path class="Bee_it_Coin-cls-6-4" d="M175.02,370.1c.18,2.15,3.14,3.57,2.18,5.72-.48,1.06-4.25,5.6-5.26,6.75-13.87,16.8-15.06-3.52-2.68-8.93,1.04-.7,5.07-4.02,5.77-3.54Z"/><path class="Bee_it_Coin-cls-6-4" d="M208.61,379.2c16.19,23.82-5.31,23.64-8.1,4.84,1.77-.15,6.65-3.85,8.1-4.84Z"/><path class="Bee_it_Coin-cls-6-4" d="M179.35,376.32c-.24,2.42,6.42,5.43,6.66,5.82,1.27,2-5.06,13.15-9.26,12.9-7.66-1.12-1.94-16.72,2.59-18.71Z"/><path class="Bee_it_Coin-cls-2-5" d="M239.79,271.68c-8.63-1.54-8.2,11.04-5.99,16.32,2.14,5.14,7.43.93,7.43-2.16v-10.32c.37-.28.96.97.96,1.2.29,5.33.32,16.22-6.91,17.04-6.16-.62-7.61-12.05-6.79-16.82.97-5.59,7.81-12.43,11.3-5.25Z"/><path class="Bee_it_Coin-cls-4-2" d="M258.87,339.98c4.46-.38,6.53-.13,4.04,5-1.8,3.71-6.35,3.68-9.55,5.32-1.52.78-1.94,2.69-3.96,1.77-8.39-4.8,3.66-12.7,9.48-12.09Z"/><path class="Bee_it_Coin-cls-6-4" d="M173.54,325.38c-6.02,2.86-1.89,12.92-13.29-.26-4-12.81,11.27-8.85,13.29.26Z"/><path class="Bee_it_Coin-cls-6-4" d="M167.37,333.6c-.67,3.83-1.27,7.6-.96,11.52-16.32-.55-19.16-14.3.96-11.52Z"/><path class="Bee_it_Coin-cls-6-4" d="M209.61,377.72l1.89-9.08c17.9,1.19,14.97,18.74-1.89,9.08Z"/><path class="Bee_it_Coin-cls-4-2" d="M272.88,384.48c-1.51-.13-4.02,1.52-5.27.74l-11.04-14.65c2.37,1.28,5.06-3.33,6.24-2.68l10.06,16.59Z"/><path class="Bee_it_Coin-cls-6-4" d="M181.24,321.56c-6.74,2.07-5.84,3.31-9.93-3.19-5.25-15.07,10.16-5.65,9.93,3.19Z"/><path class="Bee_it_Coin-cls-4-2" d="M358.24,369.12c1.93,5.64,3.04,11.67.24,17.29-.41-5.18-4.56-10.15-9.83-10.57,1.85-1.61,4.02-2.84,5.98-4.33,1.2-.91,1.87-2.66,3.61-2.39Z"/><path class="Bee_it_Coin-cls-1-3" d="M293.5,359.52l-2.4,9.12c-.84.74-8.5-4.55-8.63-5.05-.33-1.3,4.11-1.56,5.27-1.92,1.99-.61,3.8-1.49,5.76-2.15Z"/><path class="Bee_it_Coin-cls-4-2" d="M314.6,369.12c.64,2.74-3.41,3.96-4.98,5.81-.92.93-2.15,2.56-2.75,3.75-.45.32-5.66-1.93-5.68-2.6l13.42-6.96Z"/><path class="Bee_it_Coin-cls-2-5" d="M236.02,277.85c-.86-1.4-.81-4.45,1.15-4.75,3.98-.62,3.53,6.35-1.15,4.75Z"/><path class="Bee_it_Coin-cls-5-1" d="M312.2,265.44c1.24,1.3-2.15,2.54-3.35,1.91-.51-1.34,3.17-2.1,3.35-1.91Z"/><path class="Bee_it_Coin-cls-4-2" d="M271.44,346.08c.82.85-2.66,3.64-2.87-.48.5.06,2.77.38,2.87.48Z"/><path class="Bee_it_Coin-cls-5-1" d="M239.79,271.68c.24.5.93,1-.48,0h.48Z"/><path class="Bee_it_Coin-cls-5-1" d="M240.51,272.64c.31.16.31.32,0,.48v-.48Z"/><path class="Bee_it_Coin-cls-2-5" d="M226.12,352.8c.31.16.31.32,0,.48v-.48Z"/><path class="Bee_it_Coin-cls-5-1" d="M320.12,251.04c.31.16.31.32,0,.48v-.48Z"/><path class="Bee_it_Coin-cls-2-5" d="M160.9,362.88c.31.16.31.32,0,.48v-.48Z"/><path class="Bee_it_Coin-cls-1-3" d="M229.72,270.24c-.05-1.82,4.19-13.42,4.87-13.84.59-.36,5.43-.5,6.63-1.04-3.42,11.92,3.68.49,8.15-.96-.14,1.37.3,5.75,1.43,6.49,1.74,1.14,1.89-4.22,3.37-4.57-.22,1.13.52,6.06,2.4,4.8.65-2.47,3-6.87,5.53-8.63,1.15-.21.58.52.7,1.2.36,7.72,3.74,2.07,7.25-.44,13.72-9.28,18.53-2.1,23.58,10.87,11.61,45.58-38.47,79.31-62.94,29.88,19.18,10.27,16.24-39.71-.96-23.75ZM268.94,265.06c-11.1,1.36-9.69,21.7-6.85,29.17,3.3,7.25,13.74,8.09,17.44.66,4.18-8.39,2.5-31.13-10.59-29.84ZM246.02,300c-1.33-1.44-.9,2.83-.74,3.38,1.86,6.19,12.82,5.22,12.75-.25-.03-2.29-3.42,1.49-4.33,1.91-3.76,2.13-7.49-1.95-7.68-5.04Z"/><path class="Bee_it_Coin-cls-3-0" d="M268.94,265.06c13.09-1.3,14.77,21.44,10.59,29.84-3.7,7.43-14.14,6.59-17.44-.66-2.84-7.48-4.24-27.81,6.85-29.17ZM267.94,266.98c-9.28,3.41-8.46,35.4,6.03,30.99,9.72-4.1,7.93-34.01-6.03-30.99Z"/><path class="Bee_it_Coin-cls-3-0" d="M246.02,300c.2,3.1,3.92,7.17,7.68,5.04.91-.42,4.3-4.2,4.33-1.91.07,5.47-10.89,6.44-12.75.25-.17-.55-.6-4.82.74-3.38Z"/><path class="Bee_it_Coin-cls-3-0" d="M181.15,326.04c18.64-4.88,36.39,55.68,12.35,53.64-16.68-2.72-33.03-46.85-12.35-53.64ZM184.64,371.52c-.48-.98-1.62-4.08-1.47-5.03.21-1.3,1.63-1.19,1.9-2.01.62-1.89-4.37-10.38-4.28-13.12-2.91,2.97-4.54-1.53-4.3-4.06.17-1.83,2.86-3.23,2.9-3.46.2-1.03-.91-2.15-.29-3.5,1.81-1.88,6.28-6.74,6.49-.97,2.49-.96,5.5-1.73,7.68.85,3.23,3.62.08,9.08.51,9.67.07.1,1.69.54,2.22.91,4.89,2.96,4.47,11.05.23,13.85-.52,1.59.52,2.91-1.99,3.79-2.12.74-1.59-.12-2.89-1.22.13,1.7,1.36,3.45-.96,4.13-1.5.44-1.74-.72-2.64-.76-.83-.04-1.74,1.05-3.12.95,3.28,6.73,14.55,9.67,17.49.95,3.73-12.03-5.26-51.81-23.69-43.4-9.39,6.43-4.08,24.78-.26,33.31.96,2.15,4.17,8.97,6.46,9.14ZM184.15,338.4c-4.36-.68,3.55,5.3-1.92,4.6-.48-.29-1.1-3.21-1.91-2.2-.44.54.59,2.69.4,3.5-.29,1.24-2.78,1.85-2.79,3.87,0,3.73,1.8,1.45,3.03,1.79.86.24,6.05,12.27,6.36,13.86.65,3.36-3.93,1.71-2.33,4.69,1.43,2.68,3.36-1.94,4.68,1.55,1.54-1.18-.81-2.49,1-3.79,1.98-1.41,1.89-.02,2.41.38,2.87,2.17.97-1.57,1.11-2.51,6.68-2.99,4.36-14.68-2.84-12.31-.63-.69,3.85-6.28.97-10.33-4.28-5.35-8.29,4.27-8.17-3.11Z"/><path class="Bee_it_Coin-cls-2-5" d="M267.94,266.98c13.96-3.02,15.76,26.88,6.04,31-14.49,4.4-15.32-27.57-6.04-31ZM275.11,291.19c4.2-4.81,2.4-14.32.68-19.79-7.74-10.57-13.45,10.03-10.2,15.97,1.36,3.79,6.16,7.05,9.52,3.82Z"/><path class="Bee_it_Coin-cls-1-3" d="M184.64,371.52c1.38.1,2.29-.98,3.12-.95.9.04,1.14,1.2,2.64.76,2.32-.68,1.09-2.43.96-4.13,1.3,1.1.77,1.96,2.89,1.22,2.51-.88,1.47-2.2,1.99-3.79,5.14-3.35,4.2-13.39-2.45-14.76.85-2.8,2.83-12.42-5.93-11.38-.56.1-1.89,1.2-2.25.86-.29-5.81-4.63-.92-6.49.97-.62,1.36.5,2.47.29,3.5-.05.23-2.73,1.63-2.9,3.46-.24,2.53,1.38,7.04,4.3,4.06-.09,2.74,4.9,11.23,4.28,13.12-.27.82-1.69.71-1.9,2.01-.15.95.99,4.05,1.47,5.03-2.29-.17-5.5-6.99-6.46-9.14-3.82-8.53-9.13-26.88.25-33.31,18.43-8.42,27.42,31.35,23.69,43.39-2.94,8.72-14.21,5.78-17.49-.95Z"/><path class="Bee_it_Coin-cls-3-0" d="M275.11,291.19c-3.37,3.24-8.17-.03-9.52-3.82-3.25-5.94,2.47-26.54,10.2-15.97,1.72,5.48,3.52,14.97-.68,19.79ZM274.19,278.27c4.15-3.9-3.3-13.04-5.42-6.14-1.31,4.27,2.35,9.02,5.42,6.14Z"/><path class="Bee_it_Coin-cls-2-5" d="M274.19,278.27c-3.07,2.88-6.73-1.87-5.42-6.14,2.12-6.9,9.57,2.24,5.42,6.14Z"/><path class="Bee_it_Coin-cls-1-3" d="M184.15,338.4c-.12,7.39,3.88-2.24,8.17,3.11,2.88,4.05-1.6,9.63-.97,10.33,7.2-2.36,9.51,9.32,2.84,12.31-.13.93,1.76,4.67-1.11,2.51-.53-.4-.43-1.79-2.41-.38-1.81,1.29.54,2.61-1,3.79-1.32-3.49-3.24,1.13-4.68-1.55-1.59-2.98,2.99-1.32,2.33-4.69-.31-1.6-5.51-13.62-6.36-13.86-1.23-.34-3.03,1.93-3.03-1.79,0-2.02,2.5-2.62,2.79-3.87.19-.81-.84-2.96-.4-3.5.81-1.01,1.44,1.9,1.92,2.2,5.47.69-2.44-5.28,1.92-4.6ZM185.46,346.64c-2.3.68-1.24,5.72.37,5.71,2.94-.02,4.15-7.04-.37-5.71ZM190.26,355.27c-4.38,1.36-2.29,5.05-.05,7.1,2.57.44,5.11-7.89.05-7.1Z"/><path class="Bee_it_Coin-cls-3-0" d="M190.26,355.27c5.06-.79,2.52,7.55-.05,7.1-2.24-2.06-4.33-5.74.05-7.1ZM191.32,360.45c.58-.36,1.33-4.7-1.59-3.77-1.66.53.05,4.73,1.59,3.77Z"/><path class="Bee_it_Coin-cls-3-0" d="M185.46,346.64c4.52-1.34,3.32,5.68.37,5.71-1.61.01-2.67-5.02-.37-5.71ZM187.03,348c-.12-.12-1.45.07-1.91,0,.48,6.21,2.62.69,1.91,0Z"/><path class="Bee_it_Coin-cls-1-3" d="M191.32,360.45c-1.54.96-3.25-3.24-1.59-3.77,2.92-.94,2.17,3.41,1.59,3.77Z"/><path class="Bee_it_Coin-cls-1-3" d="M187.03,348c.71.69-1.44,6.21-1.91,0,.46.07,1.79-.12,1.91,0Z"/>
    <path d="M151.68,612.15c1.28-3.61,1.98-7.11,2.26-10.48.67-.17,1.24-.3,1.76-.32,1.58-.07,2.15.72,2.19,1.73.14,3.02-3.02,9.65-4.65,9.73-.77.04-1.21-.19-1.57-.65ZM158.49,611.83c1.28-3.62,1.98-7.11,2.26-10.48.67-.17,1.24-.3,1.76-.32,1.58-.07,2.15.72,2.19,1.73.14,3.02-3.02,9.65-4.65,9.73-.77.04-1.21-.19-1.57-.65Z"/><path d="M161.64,629.23c-.19-4.12,6.79-20.78,9.46-27.39,2.18-.72,6.76-1.42,11.27-1.62,3.17-.14,4.4.57,4.48,2.25.04.82-.34,1.94-.86,3.26-2.06.09-7.33.43-11.29,1.04-1.17,2.79-2.46,6.07-3.57,9.15,2.67-.41,6.4-.77,8.42-.87,1.34-.06,2.08.39,2.13,1.35.04.82-.34,1.94-1.19,3.46-2.49.11-7.04.42-11.05,1.13-1.14,3.46-1.83,6.24-1.78,7.34.03.67.28.85,1.05.82,2.69-.12,7.02-.95,9.71-1.07,1.06-.05,1.6.41,1.65,1.42.04.86-.24,2.17-.87,4.03-3,.62-7.81,1.61-10.92,1.75-3.17.14-6.46-2.64-6.62-6.04Z"/><path d="M198.2,605.07c-1.82.18-3.59.31-5.22.38-2.35.11-3.39-1.57-3.69-4.92,6.33-.39,16.28-1.23,19.78-1.39,1.73-.08,3.1.53,3.48,4.55-2.16.1-5.17.43-8.37.77-1.74,4.98-6.99,18.29-9.54,29.75-2.49.11-4.79-.6-4.91-3.38-.15-3.26,4.07-16.04,8.48-25.76Z"/><path d="M208.04,630.04c-.17-3.74,6.32-21.43,10.48-31.38,3.31-.06,4.79.69,4.85,2.13.05,1.05-1.92,5.33-4.71,13.62,2.14-.53,4.91-.9,8.03-1.04.77-.04,1.54-.02,2.26.04,1.98-6.05,4.24-12.26,5.58-15.68,3.36,0,4.83.6,4.9,2.13.09,1.87-6.79,17.51-9.37,32.43-2.93.13-4.94-.78-5.05-3.32-.08-1.82.93-5.91,2.35-10.58-2.2.15-5.99.47-10.42,1.25-1.21,3.9-2.5,8.48-3.84,13.73-2.93.13-4.94-.78-5.05-3.33Z"/><path d="M234.09,634.42c2.41.08,4.55-1.31,5.16-3.75-1.4-.03-2.37-1.33-2.42-2.48-.1-2.11,1.6-3.82,3.76-3.92,1.87-.09,3.27,1.2,3.36,3.11.16,3.5-2.81,9.02-7.41,9.23-1.77.08-2.59-.89-2.46-2.19Z"/><path d="M256.97,622.99c1.65-9.01,7.72-21.31,9.85-26.16,3.04-.72,5.53-1.07,7.54-1.16,6.71-.31,10.13,1.99,10.29,5.49.26,5.61-4.56,10.59-9.16,12.96,2.56.22,4.43,1.29,4.54,3.68.31,6.67-10.07,13.1-14.86,13.32-5.23.24-8.93-4.11-8.2-8.13ZM274.11,618.46c-.02-.53-.43-.94-1.24-.9-1.39.06-5.24.91-8.8,1.94l-1.42,4.77c-.41,1.46-.1,1.93,1.33,1.86,4.84-.22,10.23-5.32,10.12-7.67ZM278.17,603.28c-.07-1.63-1.32-2.63-3.62-2.53-.96.04-2.11.14-3.35.39-1.85,3.59-3.91,8.97-5.61,13.81,8.16-2.39,12.76-7.84,12.58-11.68Z"/><path d="M296.07,600.58c-1.82.18-3.59.31-5.22.38-2.35.11-3.39-1.57-3.69-4.92,6.33-.39,16.28-1.23,19.78-1.39,1.73-.08,3.1.53,3.48,4.55-2.16.1-5.17.43-8.37.77-1.74,4.98-6.99,18.29-9.54,29.75-2.49.11-4.79-.6-4.91-3.38-.15-3.26,4.07-16.04,8.48-25.76Z"/><path d="M306.68,619.41c-.48-10.45,9.16-25.55,19.86-26.04,2.88-.13,6.09,2.89,6.22,5.63.19,4.22-2.97,8.69-6.61,8.86-1.34.06-2.08-.19-2.77-.74,2.38-2.56,4.27-5.48,4.13-8.36-.02-.48-.17-.67-.65-.64-5.61.26-14.11,11.89-13.69,21.1.14,3.07,1.58,3.96,4.16,3.85,4.56-.21,8.2-2.49,11.19-6.47.25,6.57-4.75,11.65-11.85,11.98-5.32.24-9.73-3.54-9.98-9.15Z"/><path d="M328.46,630.09c2.41.08,4.55-1.31,5.16-3.75-1.4-.03-2.37-1.33-2.42-2.48-.1-2.11,1.6-3.82,3.76-3.92,1.87-.08,3.27,1.2,3.36,3.11.16,3.5-2.81,9.02-7.41,9.23-1.77.08-2.59-.89-2.46-2.19Z"/><path d="M351.6,619.23c-.17-3.6,5.37-17.02,9.14-30.26,2.75.26,4.14,1.3,4.25,3.51.11,2.49-1.8,7.96-4.86,16.61,2.78-4.31,5.48-6.21,7.88-6.32,2.16-.1,3.92,1.6,4.06,4.62.19,4.17-2.38,10.97-6.89,14.25,4.55-1.36,8.49-4.62,10.67-9.33l.57-1.18c1.2-.05,2.09.53,2.13,1.44l-.61,1.37c-3.66,8.29-10.54,12.3-17.49,12.62-5.23.24-8.62-2.39-8.84-7.33ZM366.09,609.2c-.05-1.01-.36-1.52-1.08-1.49-3.36.15-8.26,9.6-8.08,13.44.03.62.28.95.91.92,4.94-.23,8.41-9.42,8.25-12.87Z"/><path d="M373.71,621.58c-.23-5.04,5.08-15.95,5.52-19.04,3.4-.16,4.84.83,4.9,2.08.08,1.73-4.26,11.83-4.11,15.13.02.34.17.62.56.6,2.78-.13,7.71-5.93,10.6-18.36,2.49-.11,4.5.75,4.57,2.29.07,1.49-4.1,12.3-4,14.5.02.53.27.76.66.74,1.29-.06,4.1-2.74,6.64-8.19l.57-1.18c1.87.01,2.43.66,2.08,1.44l-.56,1.37c-2.53,5.59-7.77,11.79-12.14,11.99-1.97.09-3.42-1.28-3.52-3.39-.04-.86.24-2.08.66-3.39-2.35,4.29-5.57,7.46-8.64,7.6-2.25.1-3.67-1.51-3.8-4.2Z"/><path d="M397.51,619.67c-.16-3.55,2.18-10.1,4.4-16.25l-1.53.07c-1.77.08-2.65-1.22-2.88-3.09l5.66-.31c1.23-3.52,2.29-6.64,2.63-8.67,2.83-.03,5.28.82,5.34,2.26.03.72-.77,3.06-1.89,6.04l1.58-.07c2.3-.11,2.63.84,3.22,3.12l-6.04.33c-2.09,5.67-4.43,12.31-4.3,15.19.02.53.28.8.85.78,1.92-.09,4.03-2.15,5.93-4.93,1.2-.06,1.75.45,1.74,1.26-.09,3.22-6.22,9.03-10.68,9.24-2.3.11-3.87-1.65-4.02-4.96Z"/><path d="M422.09,620.38c-.15-3.21,4.96-14.5,6.24-20.18,2.89.2,4.66.94,4.74,2.76.04.82-1.11,4.13-2.67,7.91,3.06-5.67,7.27-11.29,11.54-11.48,2.06-.09,2.98,1.11,3.06,2.74.06,1.34-.44,2.9-1.08,4.81,2.7-4.06,5.74-7.95,9.48-8.12,2.06-.09,3.17,1.06,3.24,2.59.17,3.69-4.48,12.32-4.38,14.52.02.34.17.52.5.51,1.34-.06,4-1.82,6.75-7.85l.57-1.18c1.05-.05,2.09.43,2.13,1.44l-.61,1.37c-2.4,5.35-7.26,11.53-11.91,11.74-2.11.1-3.36-.9-3.45-2.92-.17-3.6,4.13-11.63,4.06-13.16-.02-.43-.22-.66-.75-.64-3.26.15-7.76,6.94-9.31,16-3.49.4-5.4-.47-5.45-2.49.1-3.03,4.35-10,4.24-12.4-.02-.38-.22-.62-.75-.59-4.36.2-9.86,11.41-10.14,17.81-4.12.19-5.95-.93-6.06-3.18Z"/><path d="M455.13,625.16c-.07-1.63.53-2.04,2.35-2.22,4.12-.38,7.46-.82,10.26-1.48.81-2.25,1.51-4.83,2.21-7.36l-.15-.09c-3.03,4.13-5.73,6.08-8.41,6.2-2.21.1-3.76-1.37-3.9-4.29-.2-4.32,4.71-13.53,5.5-17.41,3.61.08,4.71,1.03,4.77,2.38.08,1.82-4.05,10.28-3.91,13.25.02.53.28.9.86.87,2.54-.12,7.19-5.66,9.89-16.89,2.79.02,4.41.81,4.48,2.29.09,1.97-3.76,13.39-5.8,19.25,2.49-1.17,4.34-2.75,5.84-4.78.93.44,1.34.9,1.37,1.62.09,1.97-2.61,4.83-8.62,6.83-2.43,5.73-5.93,10.12-10.39,10.33-3.5.16-6.12-3.47-6.35-8.5ZM461.51,629.14c2.11-.1,3.62-1.85,4.89-4.4-1.96.33-4.15.62-6.55.78-.81.08-.91.14-.89.47.07,1.49.92,3.22,2.55,3.15Z"/><path d="M150.36,684.12c-.05-1.15.73-4.02,1.91-7.63-2.3.2-3.35.3-4.16.43.76-3.45,2.4-5.3,5.28-5.43l.62-.03,2.52-6.79c-2.83.18-4.02.33-4.93.46.75-3.64,2.64-5.31,5.37-5.44l1.49-.07c1.73-4.31,3.16-7.69,3.55-8.48,1.29-.06,2.23.47,2.27,1.29.02.38-.96,3.17-2.37,7.03l5.75-.26c1.68-4.3,3.01-7.68,3.41-8.47,1.29-.06,2.28.47,2.32,1.29.02.38-.96,3.17-2.27,7.02l3.55-.16c2.59-.12-1.17,4.91-1.98,4.94l-3.26.15-2.33,6.88,3.69-.17c3.02-.14-.98,4.9-1.89,4.94l-3.4.16c-1.3,4.24-2.28,7.94-2.38,9.91-2.3.11-3.2-.57-3.26-2.01-.05-1.2.73-4.07,1.86-7.73l-5.61.31c-1.34,4.24-2.33,7.89-2.43,9.87-2.25.1-3.25-.62-3.31-2.01ZM163.36,671.03l2.47-6.89-5.7.31-2.38,6.84,5.61-.26Z"/><path d="M178.4,681.54c-.2-4.46,6.05-18.97,10.78-25.87-2.97,1.29-6.67,4.44-7.9,5.84-1.54-1.04-2.2-1.97-2.25-2.88-.14-2.97,9.45-8.79,13.28-8.97,1.3-.06,2.85,1.31,3.12,3.13-3.73,7.62-10.39,22.87-11.46,31.9-3.55.16-5.48-1-5.57-3.16Z"/><path d="M202.39,679.72c-.19-4.17,3.52-13.42,5.65-19.43,2.3-.11,4.46.95,4.54,2.63.07,1.58-4.39,11.16-4.24,14.37.03.58.18.81.52.79,1.68-.08,4.43-2.89,6.92-8.29l.52-1.18c1.2-.06,2.09.48,2.13,1.44l-.61,1.37c-2.13,4.81-7.23,12.01-11.79,12.22-2.3.11-3.54-1.76-3.64-3.92ZM209.17,654.57c-.11-2.49,1.2-5.34,3.45-5.44,1.92-.09,3.13,1.11,3.19,2.54.11,2.4-1.62,5.55-3.78,5.65-1.87.09-2.79-1.03-2.87-2.75Z"/><path d="M213.42,676c0-1.01.36-1.51,1.03-1.54.86-.04,2.76.45,5.65.56-.4-1.47-1.02-3.46-1.45-5.51l-.22.49-.61,1.42c-1.1.05-2-.68-2.05-1.68l.52-1.18,1.88-4.08c.28-3.28,2.23-5.96,5.15-6.1,1.77-.08,2.91.68,3.4,1.86-1.72.22-2.87,2.29-2.79,4.12.12,2.68,1.64,6.36,2,10,1.33-.45,2.4-1.12,3.27-1.93.58.02,1.08.57,1.11,1.25.06,1.29-1.79,2.87-4.5,3.62-.81,3.31-3.72,5.79-6.46,5.92-4.22.19-6-2.99-5.95-7.22ZM218.02,680.11c1.15-.05,2.18-.68,2.39-2.27-2.5-.13-4.21-.62-4.59-.61-.05,0-.14.1-.13.25-.08,1.35.89,2.7,2.33,2.63Z"/><path d="M246.26,678.63c-.08-1.82,1.81-7.63,2.74-10.55-1.01-6.34-2.65-15.83-3.65-19.92,1.07-.67,2.26-1.02,3.31-1.06,1.92-.09,2.77.69,3,2.65.53,4.16,1.62,9.25,2.15,13.45,3.56-5.21,7.75-11.36,10.04-16.75,2.73-.13,4.58,1.28,4.64,2.77.1,2.16-6.65,11.12-13.83,20.05-.6,2.62-2.79,10.51-3.13,12.45-3.02.14-5.13-.77-5.28-3.07Z"/><path d="M266.52,671.02c-.46-10.12,8.21-25.41,17.65-25.85,4.99-.23,8.94,3.19,9.2,8.76.42,9.21-6.87,26.31-17.47,26.8-4.6.21-9.13-4.19-9.38-9.71ZM287.75,652.94c-.09-1.87-.82-3.18-2.45-3.11-5.47.25-12.83,12.5-12.4,22.1.09,1.87.96,3.13,2.93,3.04,6.62-.3,12.25-14.88,11.92-22.03Z"/><path d="M309.27,675.93c-.04-.96.96-4.13,1.35-5.2-3.25,4.57-8.07,8.49-11.81,8.66-2.93.13-4.87-1.36-5.01-4.38-.29-6.33,7.83-24.19,9.77-30.1,2.93-.13,5.2.24,5.27,1.83.1,2.21-7.93,19.97-7.67,25.48.03.62.24,1,.81.97,2.64-.12,7.45-4.09,9.83-8.91,2.31-5.06,5.28-12.74,8.14-20.6,2.83-.13,4.69.6,4.77,2.47.14,3.12-8.33,21.57-9.75,32.74-3.16.24-5.59-.32-5.71-2.96Z"/><path d="M320.7,675.79c-.11-2.49,1.2-5.34,3.45-5.44,1.92-.09,3.13,1.11,3.19,2.54.11,2.4-1.62,5.55-3.78,5.65-1.87.08-2.79-1.03-2.87-2.75Z"/><path d="M333.92,653.85c1.28-3.61,1.98-7.11,2.26-10.48.66-.17,1.24-.3,1.76-.32,1.58-.07,2.15.72,2.19,1.73.14,3.02-3.02,9.65-4.65,9.73-.77.04-1.21-.19-1.57-.65ZM340.73,653.54c1.28-3.62,1.98-7.11,2.26-10.48.67-.17,1.24-.3,1.76-.32,1.58-.07,2.15.72,2.19,1.73.14,3.02-3.02,9.65-4.65,9.73-.77.04-1.21-.19-1.57-.65Z"/>
  </svg>